<svg width="438" height="336" viewBox="0 0 438 336" fill="none" xmlns="http://www.w3.org/2000/svg">
<g filter="url(#filter0_d_1_758)">
<rect x="44" width="349.355" height="228" rx="19" fill="white"/>
</g>
<line x1="92.6445" y1="183.871" x2="92.6445" y2="68.0324" stroke="#D26D60" stroke-opacity="0.3" stroke-width="2"/>
<line x1="131.258" y1="183.871" x2="131.258" y2="68.0324" stroke="#D26D60" stroke-opacity="0.3" stroke-width="2"/>
<line x1="169.871" y1="183.871" x2="169.871" y2="68.0324" stroke="#D26D60" stroke-opacity="0.3" stroke-width="2"/>
<line x1="217.678" y1="183.871" x2="217.678" y2="68.0324" stroke="#D26D60" stroke-opacity="0.3" stroke-width="2"/>
<line x1="263.645" y1="183.871" x2="263.645" y2="68.0324" stroke="#D26D60" stroke-opacity="0.3" stroke-width="2"/>
<line x1="311.451" y1="183.871" x2="311.451" y2="68.0324" stroke="#D26D60" stroke-opacity="0.3" stroke-width="2"/>
<path opacity="0.2" fill-rule="evenodd" clip-rule="evenodd" d="M367.613 184.639H69.7422V152.621C69.7422 152.621 70.8467 144.516 82.28 144.516C93.7132 144.516 94.2781 143.145 99.4354 139.119C104.593 135.094 114.288 140.916 122.357 139.119C130.426 137.322 129.789 126.942 144.023 127.97C158.257 128.998 157.129 116.084 173.772 113.189C190.416 110.294 214.456 114.654 223.711 107.999C232.966 101.345 238.769 95.7474 263.143 95.7474C287.517 95.7474 287.325 92.5431 306.446 83.0647C325.568 73.5863 332.796 83.3248 345.271 87.9451C357.745 92.5655 367.613 80.779 367.613 80.779V184.639Z" fill="#FFC6BE"/>
<path opacity="0.6" d="M74.0822 37.8399C73.4009 37.8399 72.7849 37.7233 72.2342 37.4899C71.6929 37.2566 71.2635 36.9206 70.9462 36.4819C70.6289 36.0433 70.4655 35.5253 70.4562 34.9279H72.5562C72.5842 35.3293 72.7242 35.6466 72.9762 35.8799C73.2375 36.1133 73.5922 36.2299 74.0402 36.2299C74.4975 36.2299 74.8569 36.1226 75.1182 35.9079C75.3795 35.6839 75.5102 35.3946 75.5102 35.0399C75.5102 34.7506 75.4215 34.5126 75.2442 34.3259C75.0669 34.1393 74.8429 33.9946 74.5722 33.8919C74.3109 33.7799 73.9469 33.6586 73.4802 33.5279C72.8455 33.3413 72.3275 33.1593 71.9262 32.9819C71.5342 32.7953 71.1935 32.5199 70.9042 32.1559C70.6242 31.7826 70.4842 31.2879 70.4842 30.6719C70.4842 30.0933 70.6289 29.5893 70.9182 29.1599C71.2075 28.7306 71.6135 28.4039 72.1362 28.1799C72.6589 27.9466 73.2562 27.8299 73.9282 27.8299C74.9362 27.8299 75.7529 28.0773 76.3782 28.5719C77.0129 29.0573 77.3629 29.7386 77.4282 30.6159H75.2722C75.2535 30.2799 75.1089 30.0046 74.8382 29.7899C74.5769 29.5659 74.2269 29.4539 73.7882 29.4539C73.4055 29.4539 73.0975 29.5519 72.8642 29.7479C72.6402 29.9439 72.5282 30.2286 72.5282 30.6019C72.5282 30.8633 72.6122 31.0826 72.7802 31.2599C72.9575 31.4279 73.1722 31.5679 73.4242 31.6799C73.6855 31.7826 74.0495 31.9039 74.5162 32.0439C75.1509 32.2306 75.6689 32.4173 76.0702 32.6039C76.4715 32.7906 76.8169 33.0706 77.1062 33.4439C77.3955 33.8173 77.5402 34.3073 77.5402 34.9139C77.5402 35.4366 77.4049 35.9219 77.1342 36.3699C76.8635 36.8179 76.4669 37.1773 75.9442 37.4479C75.4215 37.7093 74.8009 37.8399 74.0822 37.8399ZM86.4494 33.6959C86.4494 33.9759 86.4308 34.2279 86.3934 34.4519H80.7234C80.7701 35.0119 80.9661 35.4506 81.3114 35.7679C81.6568 36.0853 82.0814 36.2439 82.5854 36.2439C83.3134 36.2439 83.8314 35.9313 84.1394 35.3059H86.2534C86.0294 36.0526 85.6001 36.6686 84.9654 37.1539C84.3308 37.6299 83.5514 37.8679 82.6274 37.8679C81.8808 37.8679 81.2088 37.7046 80.6114 37.3779C80.0234 37.0419 79.5614 36.5706 79.2254 35.9639C78.8988 35.3573 78.7354 34.6573 78.7354 33.8639C78.7354 33.0613 78.8988 32.3566 79.2254 31.7499C79.5521 31.1433 80.0094 30.6766 80.5974 30.3499C81.1854 30.0233 81.8621 29.8599 82.6274 29.8599C83.3648 29.8599 84.0228 30.0186 84.6014 30.3359C85.1894 30.6533 85.6421 31.1059 85.9594 31.6939C86.2861 32.2726 86.4494 32.9399 86.4494 33.6959ZM84.4194 33.1359C84.4101 32.6319 84.2281 32.2306 83.8734 31.9319C83.5188 31.6239 83.0848 31.4699 82.5714 31.4699C82.0861 31.4699 81.6754 31.6193 81.3394 31.9179C81.0128 32.2073 80.8121 32.6133 80.7374 33.1359H84.4194ZM90.8481 37.8679C90.2134 37.8679 89.6441 37.7559 89.1401 37.5319C88.6361 37.2986 88.2347 36.9859 87.9361 36.5939C87.6467 36.2019 87.4881 35.7679 87.4601 35.2919H89.4341C89.4714 35.5906 89.6161 35.8379 89.8681 36.0339C90.1294 36.2299 90.4514 36.3279 90.8341 36.3279C91.2074 36.3279 91.4967 36.2533 91.7021 36.1039C91.9167 35.9546 92.0241 35.7633 92.0241 35.5299C92.0241 35.2779 91.8934 35.0913 91.6321 34.9699C91.3801 34.8393 90.9741 34.6993 90.4141 34.5499C89.8354 34.4099 89.3594 34.2653 88.9861 34.1159C88.6221 33.9666 88.3047 33.7379 88.0341 33.4299C87.7727 33.1219 87.6421 32.7066 87.6421 32.1839C87.6421 31.7546 87.7634 31.3626 88.0061 31.0079C88.2581 30.6533 88.6127 30.3733 89.0701 30.1679C89.5367 29.9626 90.0827 29.8599 90.7081 29.8599C91.6321 29.8599 92.3694 30.0933 92.9201 30.5599C93.4707 31.0173 93.7741 31.6379 93.8301 32.4219H91.9541C91.9261 32.1139 91.7954 31.8713 91.5621 31.6939C91.3381 31.5073 91.0347 31.4139 90.6521 31.4139C90.2974 31.4139 90.0221 31.4793 89.8261 31.6099C89.6394 31.7406 89.5461 31.9226 89.5461 32.1559C89.5461 32.4173 89.6767 32.6179 89.9381 32.7579C90.1994 32.8886 90.6054 33.0239 91.1561 33.1639C91.7161 33.3039 92.1781 33.4486 92.5421 33.5979C92.9061 33.7473 93.2187 33.9806 93.4801 34.2979C93.7507 34.6059 93.8907 35.0166 93.9001 35.5299C93.9001 35.9779 93.7741 36.3793 93.5221 36.7339C93.2794 37.0886 92.9247 37.3686 92.4581 37.5739C92.0007 37.7699 91.4641 37.8679 90.8481 37.8679ZM98.477 37.8679C97.8423 37.8679 97.273 37.7559 96.769 37.5319C96.265 37.2986 95.8636 36.9859 95.565 36.5939C95.2756 36.2019 95.117 35.7679 95.089 35.2919H97.063C97.1003 35.5906 97.245 35.8379 97.497 36.0339C97.7583 36.2299 98.0803 36.3279 98.463 36.3279C98.8363 36.3279 99.1256 36.2533 99.331 36.1039C99.5456 35.9546 99.653 35.7633 99.653 35.5299C99.653 35.2779 99.5223 35.0913 99.261 34.9699C99.009 34.8393 98.603 34.6993 98.043 34.5499C97.4643 34.4099 96.9883 34.2653 96.615 34.1159C96.251 33.9666 95.9336 33.7379 95.663 33.4299C95.4016 33.1219 95.271 32.7066 95.271 32.1839C95.271 31.7546 95.3923 31.3626 95.635 31.0079C95.887 30.6533 96.2416 30.3733 96.699 30.1679C97.1656 29.9626 97.7116 29.8599 98.337 29.8599C99.261 29.8599 99.9983 30.0933 100.549 30.5599C101.1 31.0173 101.403 31.6379 101.459 32.4219H99.583C99.555 32.1139 99.4243 31.8713 99.191 31.6939C98.967 31.5073 98.6636 31.4139 98.281 31.4139C97.9263 31.4139 97.651 31.4793 97.455 31.6099C97.2683 31.7406 97.175 31.9226 97.175 32.1559C97.175 32.4173 97.3056 32.6179 97.567 32.7579C97.8283 32.8886 98.2343 33.0239 98.785 33.1639C99.345 33.3039 99.807 33.4486 100.171 33.5979C100.535 33.7473 100.848 33.9806 101.109 34.2979C101.38 34.6059 101.52 35.0166 101.529 35.5299C101.529 35.9779 101.403 36.3793 101.151 36.7339C100.908 37.0886 100.554 37.3686 100.087 37.5739C99.6296 37.7699 99.093 37.8679 98.477 37.8679ZM104.132 29.0619C103.787 29.0619 103.497 28.9546 103.264 28.7399C103.04 28.5159 102.928 28.2406 102.928 27.9139C102.928 27.5873 103.04 27.3166 103.264 27.1019C103.497 26.8779 103.787 26.7659 104.132 26.7659C104.477 26.7659 104.762 26.8779 104.986 27.1019C105.219 27.3166 105.336 27.5873 105.336 27.9139C105.336 28.2406 105.219 28.5159 104.986 28.7399C104.762 28.9546 104.477 29.0619 104.132 29.0619ZM105.098 29.9859V37.7419H103.138V29.9859H105.098ZM110.478 37.8679C109.732 37.8679 109.06 37.7046 108.462 37.3779C107.865 37.0419 107.394 36.5706 107.048 35.9639C106.712 35.3573 106.544 34.6573 106.544 33.8639C106.544 33.0706 106.717 32.3706 107.062 31.7639C107.417 31.1573 107.898 30.6906 108.504 30.3639C109.111 30.0279 109.788 29.8599 110.534 29.8599C111.281 29.8599 111.958 30.0279 112.564 30.3639C113.171 30.6906 113.647 31.1573 113.992 31.7639C114.347 32.3706 114.524 33.0706 114.524 33.8639C114.524 34.6573 114.342 35.3573 113.978 35.9639C113.624 36.5706 113.138 37.0419 112.522 37.3779C111.916 37.7046 111.234 37.8679 110.478 37.8679ZM110.478 36.1599C110.833 36.1599 111.164 36.0759 111.472 35.9079C111.79 35.7306 112.042 35.4693 112.228 35.1239C112.415 34.7786 112.508 34.3586 112.508 33.8639C112.508 33.1266 112.312 32.5619 111.92 32.1699C111.538 31.7686 111.066 31.5679 110.506 31.5679C109.946 31.5679 109.475 31.7686 109.092 32.1699C108.719 32.5619 108.532 33.1266 108.532 33.8639C108.532 34.6013 108.714 35.1706 109.078 35.5719C109.452 35.9639 109.918 36.1599 110.478 36.1599ZM120.26 29.8739C121.184 29.8739 121.931 30.1679 122.5 30.7559C123.069 31.3346 123.354 32.1466 123.354 33.1919V37.7419H121.394V33.4579C121.394 32.8419 121.24 32.3706 120.932 32.0439C120.624 31.7079 120.204 31.5399 119.672 31.5399C119.131 31.5399 118.701 31.7079 118.384 32.0439C118.076 32.3706 117.922 32.8419 117.922 33.4579V37.7419H115.962V29.9859H117.922V30.9519C118.183 30.6159 118.515 30.3546 118.916 30.1679C119.327 29.9719 119.775 29.8739 120.26 29.8739ZM131.998 37.8679C131.251 37.8679 130.579 37.7046 129.982 37.3779C129.385 37.0419 128.913 36.5706 128.568 35.9639C128.232 35.3573 128.064 34.6573 128.064 33.8639C128.064 33.0706 128.237 32.3706 128.582 31.7639C128.937 31.1573 129.417 30.6906 130.024 30.3639C130.631 30.0279 131.307 29.8599 132.054 29.8599C132.801 29.8599 133.477 30.0279 134.084 30.3639C134.691 30.6906 135.167 31.1573 135.512 31.7639C135.867 32.3706 136.044 33.0706 136.044 33.8639C136.044 34.6573 135.862 35.3573 135.498 35.9639C135.143 36.5706 134.658 37.0419 134.042 37.3779C133.435 37.7046 132.754 37.8679 131.998 37.8679ZM131.998 36.1599C132.353 36.1599 132.684 36.0759 132.992 35.9079C133.309 35.7306 133.561 35.4693 133.748 35.1239C133.935 34.7786 134.028 34.3586 134.028 33.8639C134.028 33.1266 133.832 32.5619 133.44 32.1699C133.057 31.7686 132.586 31.5679 132.026 31.5679C131.466 31.5679 130.995 31.7686 130.612 32.1699C130.239 32.5619 130.052 33.1266 130.052 33.8639C130.052 34.6013 130.234 35.1706 130.598 35.5719C130.971 35.9639 131.438 36.1599 131.998 36.1599ZM140.716 35.9359L142.676 29.9859H144.762L141.892 37.7419H139.512L136.656 29.9859H138.756L140.716 35.9359ZM153.072 33.6959C153.072 33.9759 153.054 34.2279 153.016 34.4519H147.346C147.393 35.0119 147.589 35.4506 147.934 35.7679C148.28 36.0853 148.704 36.2439 149.208 36.2439C149.936 36.2439 150.454 35.9313 150.762 35.3059H152.876C152.652 36.0526 152.223 36.6686 151.588 37.1539C150.954 37.6299 150.174 37.8679 149.25 37.8679C148.504 37.8679 147.832 37.7046 147.234 37.3779C146.646 37.0419 146.184 36.5706 145.848 35.9639C145.522 35.3573 145.358 34.6573 145.358 33.8639C145.358 33.0613 145.522 32.3566 145.848 31.7499C146.175 31.1433 146.632 30.6766 147.22 30.3499C147.808 30.0233 148.485 29.8599 149.25 29.8599C149.988 29.8599 150.646 30.0186 151.224 30.3359C151.812 30.6533 152.265 31.1059 152.582 31.6939C152.909 32.2726 153.072 32.9399 153.072 33.6959ZM151.042 33.1359C151.033 32.6319 150.851 32.2306 150.496 31.9319C150.142 31.6239 149.708 31.4699 149.194 31.4699C148.709 31.4699 148.298 31.6193 147.962 31.9179C147.636 32.2073 147.435 32.6133 147.36 33.1359H151.042ZM156.463 31.1899C156.715 30.7793 157.042 30.4573 157.443 30.2239C157.854 29.9906 158.32 29.8739 158.843 29.8739V31.9319H158.325C157.709 31.9319 157.242 32.0766 156.925 32.3659C156.617 32.6553 156.463 33.1593 156.463 33.8779V37.7419H154.503V29.9859H156.463V31.1899ZM163.397 35.9359L165.357 29.9859H167.443L164.573 37.7419H162.193L159.337 29.9859H161.437L163.397 35.9359ZM169.538 29.0619C169.193 29.0619 168.903 28.9546 168.67 28.7399C168.446 28.5159 168.334 28.2406 168.334 27.9139C168.334 27.5873 168.446 27.3166 168.67 27.1019C168.903 26.8779 169.193 26.7659 169.538 26.7659C169.883 26.7659 170.168 26.8779 170.392 27.1019C170.625 27.3166 170.742 27.5873 170.742 27.9139C170.742 28.2406 170.625 28.5159 170.392 28.7399C170.168 28.9546 169.883 29.0619 169.538 29.0619ZM170.504 29.9859V37.7419H168.544V29.9859H170.504ZM179.651 33.6959C179.651 33.9759 179.632 34.2279 179.595 34.4519H173.925C173.971 35.0119 174.167 35.4506 174.513 35.7679C174.858 36.0853 175.283 36.2439 175.787 36.2439C176.515 36.2439 177.033 35.9313 177.341 35.3059H179.455C179.231 36.0526 178.801 36.6686 178.167 37.1539C177.532 37.6299 176.753 37.8679 175.829 37.8679C175.082 37.8679 174.41 37.7046 173.813 37.3779C173.225 37.0419 172.763 36.5706 172.427 35.9639C172.1 35.3573 171.937 34.6573 171.937 33.8639C171.937 33.0613 172.1 32.3566 172.427 31.7499C172.753 31.1433 173.211 30.6766 173.799 30.3499C174.387 30.0233 175.063 29.8599 175.829 29.8599C176.566 29.8599 177.224 30.0186 177.803 30.3359C178.391 30.6533 178.843 31.1059 179.161 31.6939C179.487 32.2726 179.651 32.9399 179.651 33.6959ZM177.621 33.1359C177.611 32.6319 177.429 32.2306 177.075 31.9319C176.72 31.6239 176.286 31.4699 175.773 31.4699C175.287 31.4699 174.877 31.6193 174.541 31.9179C174.214 32.2073 174.013 32.6133 173.939 33.1359H177.621ZM191.833 29.9859L189.565 37.7419H187.451L186.037 32.3239L184.623 37.7419H182.495L180.213 29.9859H182.201L183.573 35.8939L185.057 29.9859H187.129L188.585 35.8799L189.957 29.9859H191.833Z" fill="black"/>
<path d="M319.24 32.05V32.98H317.39V39H316.25V32.98H314.39V32.05H319.24ZM322.785 39.09C322.265 39.09 321.795 38.9733 321.375 38.74C320.955 38.5 320.625 38.1667 320.385 37.74C320.145 37.3067 320.025 36.8067 320.025 36.24C320.025 35.68 320.148 35.1833 320.395 34.75C320.641 34.3167 320.978 33.9833 321.405 33.75C321.831 33.5167 322.308 33.4 322.835 33.4C323.361 33.4 323.838 33.5167 324.265 33.75C324.691 33.9833 325.028 34.3167 325.275 34.75C325.521 35.1833 325.645 35.68 325.645 36.24C325.645 36.8 325.518 37.2967 325.265 37.73C325.011 38.1633 324.665 38.5 324.225 38.74C323.791 38.9733 323.311 39.09 322.785 39.09ZM322.785 38.1C323.078 38.1 323.351 38.03 323.605 37.89C323.865 37.75 324.075 37.54 324.235 37.26C324.395 36.98 324.475 36.64 324.475 36.24C324.475 35.84 324.398 35.5033 324.245 35.23C324.091 34.95 323.888 34.74 323.635 34.6C323.381 34.46 323.108 34.39 322.815 34.39C322.521 34.39 322.248 34.46 321.995 34.6C321.748 34.74 321.551 34.95 321.405 35.23C321.258 35.5033 321.185 35.84 321.185 36.24C321.185 36.8333 321.335 37.2933 321.635 37.62C321.941 37.94 322.325 38.1 322.785 38.1ZM326.391 36.22C326.391 35.6667 326.505 35.1767 326.731 34.75C326.965 34.3233 327.278 33.9933 327.671 33.76C328.071 33.52 328.515 33.4 329.001 33.4C329.361 33.4 329.715 33.48 330.061 33.64C330.415 33.7933 330.695 34 330.901 34.26V31.6H332.051V39H330.901V38.17C330.715 38.4367 330.455 38.6567 330.121 38.83C329.795 39.0033 329.418 39.09 328.991 39.09C328.511 39.09 328.071 38.97 327.671 38.73C327.278 38.4833 326.965 38.1433 326.731 37.71C326.505 37.27 326.391 36.7733 326.391 36.22ZM330.901 36.24C330.901 35.86 330.821 35.53 330.661 35.25C330.508 34.97 330.305 34.7567 330.051 34.61C329.798 34.4633 329.525 34.39 329.231 34.39C328.938 34.39 328.665 34.4633 328.411 34.61C328.158 34.75 327.951 34.96 327.791 35.24C327.638 35.5133 327.561 35.84 327.561 36.22C327.561 36.6 327.638 36.9333 327.791 37.22C327.951 37.5067 328.158 37.7267 328.411 37.88C328.671 38.0267 328.945 38.1 329.231 38.1C329.525 38.1 329.798 38.0267 330.051 37.88C330.305 37.7333 330.508 37.52 330.661 37.24C330.821 36.9533 330.901 36.62 330.901 36.24ZM333.169 36.22C333.169 35.6667 333.282 35.1767 333.509 34.75C333.742 34.3233 334.055 33.9933 334.449 33.76C334.849 33.52 335.289 33.4 335.769 33.4C336.202 33.4 336.579 33.4867 336.899 33.66C337.225 33.8267 337.485 34.0367 337.679 34.29V33.49H338.829V39H337.679V38.18C337.485 38.44 337.222 38.6567 336.889 38.83C336.555 39.0033 336.175 39.09 335.749 39.09C335.275 39.09 334.842 38.97 334.449 38.73C334.055 38.4833 333.742 38.1433 333.509 37.71C333.282 37.27 333.169 36.7733 333.169 36.22ZM337.679 36.24C337.679 35.86 337.599 35.53 337.439 35.25C337.285 34.97 337.082 34.7567 336.829 34.61C336.575 34.4633 336.302 34.39 336.009 34.39C335.715 34.39 335.442 34.4633 335.189 34.61C334.935 34.75 334.729 34.96 334.569 35.24C334.415 35.5133 334.339 35.84 334.339 36.22C334.339 36.6 334.415 36.9333 334.569 37.22C334.729 37.5067 334.935 37.7267 335.189 37.88C335.449 38.0267 335.722 38.1 336.009 38.1C336.302 38.1 336.575 38.0267 336.829 37.88C337.082 37.7333 337.285 37.52 337.439 37.24C337.599 36.9533 337.679 36.62 337.679 36.24ZM345.286 33.49L341.906 41.59H340.726L341.846 38.91L339.676 33.49H340.946L342.496 37.69L344.106 33.49H345.286Z" fill="black" fill-opacity="0.7"/>
<g clip-path="url(#clip0_1_758)">
<path d="M354.999 35.4883L357.062 33.4258L357.651 34.0149L354.999 36.6666L352.348 34.0149L352.937 33.4258L354.999 35.4883Z" fill="#D26D60"/>
</g>
<rect x="302.25" y="24.25" width="65.5" height="21.5" rx="2.75" stroke="black" stroke-opacity="0.2" stroke-width="0.5"/>
<path opacity="0.8" d="M70.1222 195.503V194.673H72.0022V201.903H71.0822V195.503H70.1222ZM73.5653 198.213C73.5653 197.067 73.752 196.173 74.1253 195.533C74.4986 194.887 75.152 194.563 76.0853 194.563C77.012 194.563 77.662 194.887 78.0353 195.533C78.4086 196.173 78.5953 197.067 78.5953 198.213C78.5953 199.38 78.4086 200.287 78.0353 200.933C77.662 201.58 77.012 201.903 76.0853 201.903C75.152 201.903 74.4986 201.58 74.1253 200.933C73.752 200.287 73.5653 199.38 73.5653 198.213ZM77.6953 198.213C77.6953 197.633 77.6553 197.143 77.5753 196.743C77.502 196.337 77.3453 196.01 77.1053 195.763C76.872 195.517 76.532 195.393 76.0853 195.393C75.632 195.393 75.2853 195.517 75.0453 195.763C74.812 196.01 74.6553 196.337 74.5753 196.743C74.502 197.143 74.4653 197.633 74.4653 198.213C74.4653 198.813 74.502 199.317 74.5753 199.723C74.6553 200.13 74.812 200.457 75.0453 200.703C75.2853 200.95 75.632 201.073 76.0853 201.073C76.532 201.073 76.872 200.95 77.1053 200.703C77.3453 200.457 77.502 200.13 77.5753 199.723C77.6553 199.317 77.6953 198.813 77.6953 198.213ZM80.2846 201.963C80.1113 201.963 79.9646 201.903 79.8446 201.783C79.7246 201.663 79.6646 201.517 79.6646 201.343C79.6646 201.17 79.7246 201.023 79.8446 200.903C79.9646 200.783 80.1113 200.723 80.2846 200.723C80.4513 200.723 80.5913 200.783 80.7046 200.903C80.8246 201.023 80.8846 201.17 80.8846 201.343C80.8846 201.517 80.8246 201.663 80.7046 201.783C80.5913 201.903 80.4513 201.963 80.2846 201.963ZM80.2846 197.683C80.1113 197.683 79.9646 197.623 79.8446 197.503C79.7246 197.383 79.6646 197.237 79.6646 197.063C79.6646 196.89 79.7246 196.743 79.8446 196.623C79.9646 196.503 80.1113 196.443 80.2846 196.443C80.4513 196.443 80.5913 196.503 80.7046 196.623C80.8246 196.743 80.8846 196.89 80.8846 197.063C80.8846 197.237 80.8246 197.383 80.7046 197.503C80.5913 197.623 80.4513 197.683 80.2846 197.683ZM81.9735 198.213C81.9735 197.067 82.1602 196.173 82.5335 195.533C82.9068 194.887 83.5602 194.563 84.4935 194.563C85.4202 194.563 86.0702 194.887 86.4435 195.533C86.8168 196.173 87.0035 197.067 87.0035 198.213C87.0035 199.38 86.8168 200.287 86.4435 200.933C86.0702 201.58 85.4202 201.903 84.4935 201.903C83.5602 201.903 82.9068 201.58 82.5335 200.933C82.1602 200.287 81.9735 199.38 81.9735 198.213ZM86.1035 198.213C86.1035 197.633 86.0635 197.143 85.9835 196.743C85.9102 196.337 85.7535 196.01 85.5135 195.763C85.2802 195.517 84.9402 195.393 84.4935 195.393C84.0402 195.393 83.6935 195.517 83.4535 195.763C83.2202 196.01 83.0635 196.337 82.9835 196.743C82.9102 197.143 82.8735 197.633 82.8735 198.213C82.8735 198.813 82.9102 199.317 82.9835 199.723C83.0635 200.13 83.2202 200.457 83.4535 200.703C83.6935 200.95 84.0402 201.073 84.4935 201.073C84.9402 201.073 85.2802 200.95 85.5135 200.703C85.7535 200.457 85.9102 200.13 85.9835 199.723C86.0635 199.317 86.1035 198.813 86.1035 198.213ZM88.2528 198.213C88.2528 197.067 88.4395 196.173 88.8128 195.533C89.1861 194.887 89.8395 194.563 90.7728 194.563C91.6995 194.563 92.3495 194.887 92.7228 195.533C93.0961 196.173 93.2828 197.067 93.2828 198.213C93.2828 199.38 93.0961 200.287 92.7228 200.933C92.3495 201.58 91.6995 201.903 90.7728 201.903C89.8395 201.903 89.1861 201.58 88.8128 200.933C88.4395 200.287 88.2528 199.38 88.2528 198.213ZM92.3828 198.213C92.3828 197.633 92.3428 197.143 92.2628 196.743C92.1895 196.337 92.0328 196.01 91.7928 195.763C91.5595 195.517 91.2195 195.393 90.7728 195.393C90.3195 195.393 89.9728 195.517 89.7328 195.763C89.4995 196.01 89.3428 196.337 89.2628 196.743C89.1895 197.143 89.1528 197.633 89.1528 198.213C89.1528 198.813 89.1895 199.317 89.2628 199.723C89.3428 200.13 89.4995 200.457 89.7328 200.703C89.9728 200.95 90.3195 201.073 90.7728 201.073C91.2195 201.073 91.5595 200.95 91.7928 200.703C92.0328 200.457 92.1895 200.13 92.2628 199.723C92.3428 199.317 92.3828 198.813 92.3828 198.213Z" fill="black" fill-opacity="0.7"/>
<path opacity="0.8" d="M116.089 195.503V194.673H117.969V201.903H117.049V195.503H116.089ZM119.532 198.213C119.532 197.067 119.719 196.173 120.092 195.533C120.465 194.887 121.119 194.563 122.052 194.563C122.979 194.563 123.629 194.887 124.002 195.533C124.375 196.173 124.562 197.067 124.562 198.213C124.562 199.38 124.375 200.287 124.002 200.933C123.629 201.58 122.979 201.903 122.052 201.903C121.119 201.903 120.465 201.58 120.092 200.933C119.719 200.287 119.532 199.38 119.532 198.213ZM123.662 198.213C123.662 197.633 123.622 197.143 123.542 196.743C123.469 196.337 123.312 196.01 123.072 195.763C122.839 195.517 122.499 195.393 122.052 195.393C121.599 195.393 121.252 195.517 121.012 195.763C120.779 196.01 120.622 196.337 120.542 196.743C120.469 197.143 120.432 197.633 120.432 198.213C120.432 198.813 120.469 199.317 120.542 199.723C120.622 200.13 120.779 200.457 121.012 200.703C121.252 200.95 121.599 201.073 122.052 201.073C122.499 201.073 122.839 200.95 123.072 200.703C123.312 200.457 123.469 200.13 123.542 199.723C123.622 199.317 123.662 198.813 123.662 198.213ZM126.251 201.963C126.078 201.963 125.931 201.903 125.811 201.783C125.691 201.663 125.631 201.517 125.631 201.343C125.631 201.17 125.691 201.023 125.811 200.903C125.931 200.783 126.078 200.723 126.251 200.723C126.418 200.723 126.558 200.783 126.671 200.903C126.791 201.023 126.851 201.17 126.851 201.343C126.851 201.517 126.791 201.663 126.671 201.783C126.558 201.903 126.418 201.963 126.251 201.963ZM126.251 197.683C126.078 197.683 125.931 197.623 125.811 197.503C125.691 197.383 125.631 197.237 125.631 197.063C125.631 196.89 125.691 196.743 125.811 196.623C125.931 196.503 126.078 196.443 126.251 196.443C126.418 196.443 126.558 196.503 126.671 196.623C126.791 196.743 126.851 196.89 126.851 197.063C126.851 197.237 126.791 197.383 126.671 197.503C126.558 197.623 126.418 197.683 126.251 197.683ZM127.94 198.213C127.94 197.067 128.127 196.173 128.5 195.533C128.874 194.887 129.527 194.563 130.46 194.563C131.387 194.563 132.037 194.887 132.41 195.533C132.784 196.173 132.97 197.067 132.97 198.213C132.97 199.38 132.784 200.287 132.41 200.933C132.037 201.58 131.387 201.903 130.46 201.903C129.527 201.903 128.874 201.58 128.5 200.933C128.127 200.287 127.94 199.38 127.94 198.213ZM132.07 198.213C132.07 197.633 132.03 197.143 131.95 196.743C131.877 196.337 131.72 196.01 131.48 195.763C131.247 195.517 130.907 195.393 130.46 195.393C130.007 195.393 129.66 195.517 129.42 195.763C129.187 196.01 129.03 196.337 128.95 196.743C128.877 197.143 128.84 197.633 128.84 198.213C128.84 198.813 128.877 199.317 128.95 199.723C129.03 200.13 129.187 200.457 129.42 200.703C129.66 200.95 130.007 201.073 130.46 201.073C130.907 201.073 131.247 200.95 131.48 200.703C131.72 200.457 131.877 200.13 131.95 199.723C132.03 199.317 132.07 198.813 132.07 198.213ZM134.22 198.213C134.22 197.067 134.406 196.173 134.78 195.533C135.153 194.887 135.806 194.563 136.74 194.563C137.666 194.563 138.316 194.887 138.69 195.533C139.063 196.173 139.25 197.067 139.25 198.213C139.25 199.38 139.063 200.287 138.69 200.933C138.316 201.58 137.666 201.903 136.74 201.903C135.806 201.903 135.153 201.58 134.78 200.933C134.406 200.287 134.22 199.38 134.22 198.213ZM138.35 198.213C138.35 197.633 138.31 197.143 138.23 196.743C138.156 196.337 138 196.01 137.76 195.763C137.526 195.517 137.186 195.393 136.74 195.393C136.286 195.393 135.94 195.517 135.7 195.763C135.466 196.01 135.31 196.337 135.23 196.743C135.156 197.143 135.12 197.633 135.12 198.213C135.12 198.813 135.156 199.317 135.23 199.723C135.31 200.13 135.466 200.457 135.7 200.703C135.94 200.95 136.286 201.073 136.74 201.073C137.186 201.073 137.526 200.95 137.76 200.703C138 200.457 138.156 200.13 138.23 199.723C138.31 199.317 138.35 198.813 138.35 198.213Z" fill="black" fill-opacity="0.7"/>
<path opacity="0.8" d="M162.058 195.503V194.673H163.938V201.903H163.018V195.503H162.058ZM165.501 198.213C165.501 197.067 165.688 196.173 166.061 195.533C166.434 194.887 167.088 194.563 168.021 194.563C168.948 194.563 169.598 194.887 169.971 195.533C170.344 196.173 170.531 197.067 170.531 198.213C170.531 199.38 170.344 200.287 169.971 200.933C169.598 201.58 168.948 201.903 168.021 201.903C167.088 201.903 166.434 201.58 166.061 200.933C165.688 200.287 165.501 199.38 165.501 198.213ZM169.631 198.213C169.631 197.633 169.591 197.143 169.511 196.743C169.438 196.337 169.281 196.01 169.041 195.763C168.808 195.517 168.468 195.393 168.021 195.393C167.568 195.393 167.221 195.517 166.981 195.763C166.748 196.01 166.591 196.337 166.511 196.743C166.438 197.143 166.401 197.633 166.401 198.213C166.401 198.813 166.438 199.317 166.511 199.723C166.591 200.13 166.748 200.457 166.981 200.703C167.221 200.95 167.568 201.073 168.021 201.073C168.468 201.073 168.808 200.95 169.041 200.703C169.281 200.457 169.438 200.13 169.511 199.723C169.591 199.317 169.631 198.813 169.631 198.213ZM172.22 201.963C172.047 201.963 171.9 201.903 171.78 201.783C171.66 201.663 171.6 201.517 171.6 201.343C171.6 201.17 171.66 201.023 171.78 200.903C171.9 200.783 172.047 200.723 172.22 200.723C172.387 200.723 172.527 200.783 172.64 200.903C172.76 201.023 172.82 201.17 172.82 201.343C172.82 201.517 172.76 201.663 172.64 201.783C172.527 201.903 172.387 201.963 172.22 201.963ZM172.22 197.683C172.047 197.683 171.9 197.623 171.78 197.503C171.66 197.383 171.6 197.237 171.6 197.063C171.6 196.89 171.66 196.743 171.78 196.623C171.9 196.503 172.047 196.443 172.22 196.443C172.387 196.443 172.527 196.503 172.64 196.623C172.76 196.743 172.82 196.89 172.82 197.063C172.82 197.237 172.76 197.383 172.64 197.503C172.527 197.623 172.387 197.683 172.22 197.683ZM173.909 198.213C173.909 197.067 174.096 196.173 174.469 195.533C174.842 194.887 175.496 194.563 176.429 194.563C177.356 194.563 178.006 194.887 178.379 195.533C178.752 196.173 178.939 197.067 178.939 198.213C178.939 199.38 178.752 200.287 178.379 200.933C178.006 201.58 177.356 201.903 176.429 201.903C175.496 201.903 174.842 201.58 174.469 200.933C174.096 200.287 173.909 199.38 173.909 198.213ZM178.039 198.213C178.039 197.633 177.999 197.143 177.919 196.743C177.846 196.337 177.689 196.01 177.449 195.763C177.216 195.517 176.876 195.393 176.429 195.393C175.976 195.393 175.629 195.517 175.389 195.763C175.156 196.01 174.999 196.337 174.919 196.743C174.846 197.143 174.809 197.633 174.809 198.213C174.809 198.813 174.846 199.317 174.919 199.723C174.999 200.13 175.156 200.457 175.389 200.703C175.629 200.95 175.976 201.073 176.429 201.073C176.876 201.073 177.216 200.95 177.449 200.703C177.689 200.457 177.846 200.13 177.919 199.723C177.999 199.317 178.039 198.813 178.039 198.213ZM180.188 198.213C180.188 197.067 180.375 196.173 180.748 195.533C181.122 194.887 181.775 194.563 182.708 194.563C183.635 194.563 184.285 194.887 184.658 195.533C185.032 196.173 185.218 197.067 185.218 198.213C185.218 199.38 185.032 200.287 184.658 200.933C184.285 201.58 183.635 201.903 182.708 201.903C181.775 201.903 181.122 201.58 180.748 200.933C180.375 200.287 180.188 199.38 180.188 198.213ZM184.318 198.213C184.318 197.633 184.278 197.143 184.198 196.743C184.125 196.337 183.968 196.01 183.728 195.763C183.495 195.517 183.155 195.393 182.708 195.393C182.255 195.393 181.908 195.517 181.668 195.763C181.435 196.01 181.278 196.337 181.198 196.743C181.125 197.143 181.088 197.633 181.088 198.213C181.088 198.813 181.125 199.317 181.198 199.723C181.278 200.13 181.435 200.457 181.668 200.703C181.908 200.95 182.255 201.073 182.708 201.073C183.155 201.073 183.495 200.95 183.728 200.703C183.968 200.457 184.125 200.13 184.198 199.723C184.278 199.317 184.318 198.813 184.318 198.213Z" fill="black" fill-opacity="0.7"/>
<path opacity="0.8" d="M208.025 195.503V194.673H209.905V201.903H208.985V195.503H208.025ZM211.468 198.213C211.468 197.067 211.654 196.173 212.028 195.533C212.401 194.887 213.054 194.563 213.988 194.563C214.914 194.563 215.564 194.887 215.938 195.533C216.311 196.173 216.498 197.067 216.498 198.213C216.498 199.38 216.311 200.287 215.938 200.933C215.564 201.58 214.914 201.903 213.988 201.903C213.054 201.903 212.401 201.58 212.028 200.933C211.654 200.287 211.468 199.38 211.468 198.213ZM215.598 198.213C215.598 197.633 215.558 197.143 215.478 196.743C215.404 196.337 215.248 196.01 215.008 195.763C214.774 195.517 214.434 195.393 213.988 195.393C213.534 195.393 213.188 195.517 212.948 195.763C212.714 196.01 212.558 196.337 212.478 196.743C212.404 197.143 212.368 197.633 212.368 198.213C212.368 198.813 212.404 199.317 212.478 199.723C212.558 200.13 212.714 200.457 212.948 200.703C213.188 200.95 213.534 201.073 213.988 201.073C214.434 201.073 214.774 200.95 215.008 200.703C215.248 200.457 215.404 200.13 215.478 199.723C215.558 199.317 215.598 198.813 215.598 198.213ZM218.187 201.963C218.014 201.963 217.867 201.903 217.747 201.783C217.627 201.663 217.567 201.517 217.567 201.343C217.567 201.17 217.627 201.023 217.747 200.903C217.867 200.783 218.014 200.723 218.187 200.723C218.354 200.723 218.494 200.783 218.607 200.903C218.727 201.023 218.787 201.17 218.787 201.343C218.787 201.517 218.727 201.663 218.607 201.783C218.494 201.903 218.354 201.963 218.187 201.963ZM218.187 197.683C218.014 197.683 217.867 197.623 217.747 197.503C217.627 197.383 217.567 197.237 217.567 197.063C217.567 196.89 217.627 196.743 217.747 196.623C217.867 196.503 218.014 196.443 218.187 196.443C218.354 196.443 218.494 196.503 218.607 196.623C218.727 196.743 218.787 196.89 218.787 197.063C218.787 197.237 218.727 197.383 218.607 197.503C218.494 197.623 218.354 197.683 218.187 197.683ZM219.876 198.213C219.876 197.067 220.063 196.173 220.436 195.533C220.809 194.887 221.463 194.563 222.396 194.563C223.323 194.563 223.973 194.887 224.346 195.533C224.719 196.173 224.906 197.067 224.906 198.213C224.906 199.38 224.719 200.287 224.346 200.933C223.973 201.58 223.323 201.903 222.396 201.903C221.463 201.903 220.809 201.58 220.436 200.933C220.063 200.287 219.876 199.38 219.876 198.213ZM224.006 198.213C224.006 197.633 223.966 197.143 223.886 196.743C223.813 196.337 223.656 196.01 223.416 195.763C223.183 195.517 222.843 195.393 222.396 195.393C221.943 195.393 221.596 195.517 221.356 195.763C221.123 196.01 220.966 196.337 220.886 196.743C220.813 197.143 220.776 197.633 220.776 198.213C220.776 198.813 220.813 199.317 220.886 199.723C220.966 200.13 221.123 200.457 221.356 200.703C221.596 200.95 221.943 201.073 222.396 201.073C222.843 201.073 223.183 200.95 223.416 200.703C223.656 200.457 223.813 200.13 223.886 199.723C223.966 199.317 224.006 198.813 224.006 198.213ZM226.155 198.213C226.155 197.067 226.342 196.173 226.715 195.533C227.088 194.887 227.742 194.563 228.675 194.563C229.602 194.563 230.252 194.887 230.625 195.533C230.998 196.173 231.185 197.067 231.185 198.213C231.185 199.38 230.998 200.287 230.625 200.933C230.252 201.58 229.602 201.903 228.675 201.903C227.742 201.903 227.088 201.58 226.715 200.933C226.342 200.287 226.155 199.38 226.155 198.213ZM230.285 198.213C230.285 197.633 230.245 197.143 230.165 196.743C230.092 196.337 229.935 196.01 229.695 195.763C229.462 195.517 229.122 195.393 228.675 195.393C228.222 195.393 227.875 195.517 227.635 195.763C227.402 196.01 227.245 196.337 227.165 196.743C227.092 197.143 227.055 197.633 227.055 198.213C227.055 198.813 227.092 199.317 227.165 199.723C227.245 200.13 227.402 200.457 227.635 200.703C227.875 200.95 228.222 201.073 228.675 201.073C229.122 201.073 229.462 200.95 229.695 200.703C229.935 200.457 230.092 200.13 230.165 199.723C230.245 199.317 230.285 198.813 230.285 198.213Z" fill="black" fill-opacity="0.7"/>
<path opacity="0.8" d="M253.993 195.503V194.673H255.873V201.903H254.953V195.503H253.993ZM257.436 198.213C257.436 197.067 257.623 196.173 257.996 195.533C258.37 194.887 259.023 194.563 259.956 194.563C260.883 194.563 261.533 194.887 261.906 195.533C262.28 196.173 262.466 197.067 262.466 198.213C262.466 199.38 262.28 200.287 261.906 200.933C261.533 201.58 260.883 201.903 259.956 201.903C259.023 201.903 258.37 201.58 257.996 200.933C257.623 200.287 257.436 199.38 257.436 198.213ZM261.566 198.213C261.566 197.633 261.526 197.143 261.446 196.743C261.373 196.337 261.216 196.01 260.976 195.763C260.743 195.517 260.403 195.393 259.956 195.393C259.503 195.393 259.156 195.517 258.916 195.763C258.683 196.01 258.526 196.337 258.446 196.743C258.373 197.143 258.336 197.633 258.336 198.213C258.336 198.813 258.373 199.317 258.446 199.723C258.526 200.13 258.683 200.457 258.916 200.703C259.156 200.95 259.503 201.073 259.956 201.073C260.403 201.073 260.743 200.95 260.976 200.703C261.216 200.457 261.373 200.13 261.446 199.723C261.526 199.317 261.566 198.813 261.566 198.213ZM264.156 201.963C263.982 201.963 263.836 201.903 263.716 201.783C263.596 201.663 263.536 201.517 263.536 201.343C263.536 201.17 263.596 201.023 263.716 200.903C263.836 200.783 263.982 200.723 264.156 200.723C264.322 200.723 264.462 200.783 264.576 200.903C264.696 201.023 264.756 201.17 264.756 201.343C264.756 201.517 264.696 201.663 264.576 201.783C264.462 201.903 264.322 201.963 264.156 201.963ZM264.156 197.683C263.982 197.683 263.836 197.623 263.716 197.503C263.596 197.383 263.536 197.237 263.536 197.063C263.536 196.89 263.596 196.743 263.716 196.623C263.836 196.503 263.982 196.443 264.156 196.443C264.322 196.443 264.462 196.503 264.576 196.623C264.696 196.743 264.756 196.89 264.756 197.063C264.756 197.237 264.696 197.383 264.576 197.503C264.462 197.623 264.322 197.683 264.156 197.683ZM265.845 198.213C265.845 197.067 266.031 196.173 266.405 195.533C266.778 194.887 267.431 194.563 268.365 194.563C269.291 194.563 269.941 194.887 270.315 195.533C270.688 196.173 270.875 197.067 270.875 198.213C270.875 199.38 270.688 200.287 270.315 200.933C269.941 201.58 269.291 201.903 268.365 201.903C267.431 201.903 266.778 201.58 266.405 200.933C266.031 200.287 265.845 199.38 265.845 198.213ZM269.975 198.213C269.975 197.633 269.935 197.143 269.855 196.743C269.781 196.337 269.625 196.01 269.385 195.763C269.151 195.517 268.811 195.393 268.365 195.393C267.911 195.393 267.565 195.517 267.325 195.763C267.091 196.01 266.935 196.337 266.855 196.743C266.781 197.143 266.745 197.633 266.745 198.213C266.745 198.813 266.781 199.317 266.855 199.723C266.935 200.13 267.091 200.457 267.325 200.703C267.565 200.95 267.911 201.073 268.365 201.073C268.811 201.073 269.151 200.95 269.385 200.703C269.625 200.457 269.781 200.13 269.855 199.723C269.935 199.317 269.975 198.813 269.975 198.213ZM272.124 198.213C272.124 197.067 272.311 196.173 272.684 195.533C273.057 194.887 273.711 194.563 274.644 194.563C275.571 194.563 276.221 194.887 276.594 195.533C276.967 196.173 277.154 197.067 277.154 198.213C277.154 199.38 276.967 200.287 276.594 200.933C276.221 201.58 275.571 201.903 274.644 201.903C273.711 201.903 273.057 201.58 272.684 200.933C272.311 200.287 272.124 199.38 272.124 198.213ZM276.254 198.213C276.254 197.633 276.214 197.143 276.134 196.743C276.061 196.337 275.904 196.01 275.664 195.763C275.431 195.517 275.091 195.393 274.644 195.393C274.191 195.393 273.844 195.517 273.604 195.763C273.371 196.01 273.214 196.337 273.134 196.743C273.061 197.143 273.024 197.633 273.024 198.213C273.024 198.813 273.061 199.317 273.134 199.723C273.214 200.13 273.371 200.457 273.604 200.703C273.844 200.95 274.191 201.073 274.644 201.073C275.091 201.073 275.431 200.95 275.664 200.703C275.904 200.457 276.061 200.13 276.134 199.723C276.214 199.317 276.254 198.813 276.254 198.213Z" fill="black" fill-opacity="0.7"/>
<path opacity="0.8" d="M299.96 195.503V194.673H301.84V201.903H300.92V195.503H299.96ZM303.403 198.213C303.403 197.067 303.59 196.173 303.963 195.533C304.337 194.887 304.99 194.563 305.923 194.563C306.85 194.563 307.5 194.887 307.873 195.533C308.247 196.173 308.433 197.067 308.433 198.213C308.433 199.38 308.247 200.287 307.873 200.933C307.5 201.58 306.85 201.903 305.923 201.903C304.99 201.903 304.337 201.58 303.963 200.933C303.59 200.287 303.403 199.38 303.403 198.213ZM307.533 198.213C307.533 197.633 307.493 197.143 307.413 196.743C307.34 196.337 307.183 196.01 306.943 195.763C306.71 195.517 306.37 195.393 305.923 195.393C305.47 195.393 305.123 195.517 304.883 195.763C304.65 196.01 304.493 196.337 304.413 196.743C304.34 197.143 304.303 197.633 304.303 198.213C304.303 198.813 304.34 199.317 304.413 199.723C304.493 200.13 304.65 200.457 304.883 200.703C305.123 200.95 305.47 201.073 305.923 201.073C306.37 201.073 306.71 200.95 306.943 200.703C307.183 200.457 307.34 200.13 307.413 199.723C307.493 199.317 307.533 198.813 307.533 198.213ZM310.123 201.963C309.949 201.963 309.803 201.903 309.683 201.783C309.563 201.663 309.503 201.517 309.503 201.343C309.503 201.17 309.563 201.023 309.683 200.903C309.803 200.783 309.949 200.723 310.123 200.723C310.289 200.723 310.429 200.783 310.543 200.903C310.663 201.023 310.723 201.17 310.723 201.343C310.723 201.517 310.663 201.663 310.543 201.783C310.429 201.903 310.289 201.963 310.123 201.963ZM310.123 197.683C309.949 197.683 309.803 197.623 309.683 197.503C309.563 197.383 309.503 197.237 309.503 197.063C309.503 196.89 309.563 196.743 309.683 196.623C309.803 196.503 309.949 196.443 310.123 196.443C310.289 196.443 310.429 196.503 310.543 196.623C310.663 196.743 310.723 196.89 310.723 197.063C310.723 197.237 310.663 197.383 310.543 197.503C310.429 197.623 310.289 197.683 310.123 197.683ZM311.811 198.213C311.811 197.067 311.998 196.173 312.371 195.533C312.745 194.887 313.398 194.563 314.331 194.563C315.258 194.563 315.908 194.887 316.281 195.533C316.655 196.173 316.841 197.067 316.841 198.213C316.841 199.38 316.655 200.287 316.281 200.933C315.908 201.58 315.258 201.903 314.331 201.903C313.398 201.903 312.745 201.58 312.371 200.933C311.998 200.287 311.811 199.38 311.811 198.213ZM315.941 198.213C315.941 197.633 315.901 197.143 315.821 196.743C315.748 196.337 315.591 196.01 315.351 195.763C315.118 195.517 314.778 195.393 314.331 195.393C313.878 195.393 313.531 195.517 313.291 195.763C313.058 196.01 312.901 196.337 312.821 196.743C312.748 197.143 312.711 197.633 312.711 198.213C312.711 198.813 312.748 199.317 312.821 199.723C312.901 200.13 313.058 200.457 313.291 200.703C313.531 200.95 313.878 201.073 314.331 201.073C314.778 201.073 315.118 200.95 315.351 200.703C315.591 200.457 315.748 200.13 315.821 199.723C315.901 199.317 315.941 198.813 315.941 198.213ZM318.091 198.213C318.091 197.067 318.277 196.173 318.651 195.533C319.024 194.887 319.677 194.563 320.611 194.563C321.537 194.563 322.187 194.887 322.561 195.533C322.934 196.173 323.121 197.067 323.121 198.213C323.121 199.38 322.934 200.287 322.561 200.933C322.187 201.58 321.537 201.903 320.611 201.903C319.677 201.903 319.024 201.58 318.651 200.933C318.277 200.287 318.091 199.38 318.091 198.213ZM322.221 198.213C322.221 197.633 322.181 197.143 322.101 196.743C322.027 196.337 321.871 196.01 321.631 195.763C321.397 195.517 321.057 195.393 320.611 195.393C320.157 195.393 319.811 195.517 319.571 195.763C319.337 196.01 319.181 196.337 319.101 196.743C319.027 197.143 318.991 197.633 318.991 198.213C318.991 198.813 319.027 199.317 319.101 199.723C319.181 200.13 319.337 200.457 319.571 200.703C319.811 200.95 320.157 201.073 320.611 201.073C321.057 201.073 321.397 200.95 321.631 200.703C321.871 200.457 322.027 200.13 322.101 199.723C322.181 199.317 322.221 198.813 322.221 198.213Z" fill="black" fill-opacity="0.7"/>
<path opacity="0.8" d="M345.929 195.503V194.673H347.809V201.903H346.889V195.503H345.929ZM349.372 198.213C349.372 197.067 349.559 196.173 349.932 195.533C350.305 194.887 350.959 194.563 351.892 194.563C352.819 194.563 353.469 194.887 353.842 195.533C354.215 196.173 354.402 197.067 354.402 198.213C354.402 199.38 354.215 200.287 353.842 200.933C353.469 201.58 352.819 201.903 351.892 201.903C350.959 201.903 350.305 201.58 349.932 200.933C349.559 200.287 349.372 199.38 349.372 198.213ZM353.502 198.213C353.502 197.633 353.462 197.143 353.382 196.743C353.309 196.337 353.152 196.01 352.912 195.763C352.679 195.517 352.339 195.393 351.892 195.393C351.439 195.393 351.092 195.517 350.852 195.763C350.619 196.01 350.462 196.337 350.382 196.743C350.309 197.143 350.272 197.633 350.272 198.213C350.272 198.813 350.309 199.317 350.382 199.723C350.462 200.13 350.619 200.457 350.852 200.703C351.092 200.95 351.439 201.073 351.892 201.073C352.339 201.073 352.679 200.95 352.912 200.703C353.152 200.457 353.309 200.13 353.382 199.723C353.462 199.317 353.502 198.813 353.502 198.213ZM356.091 201.963C355.918 201.963 355.771 201.903 355.651 201.783C355.531 201.663 355.471 201.517 355.471 201.343C355.471 201.17 355.531 201.023 355.651 200.903C355.771 200.783 355.918 200.723 356.091 200.723C356.258 200.723 356.398 200.783 356.511 200.903C356.631 201.023 356.691 201.17 356.691 201.343C356.691 201.517 356.631 201.663 356.511 201.783C356.398 201.903 356.258 201.963 356.091 201.963ZM356.091 197.683C355.918 197.683 355.771 197.623 355.651 197.503C355.531 197.383 355.471 197.237 355.471 197.063C355.471 196.89 355.531 196.743 355.651 196.623C355.771 196.503 355.918 196.443 356.091 196.443C356.258 196.443 356.398 196.503 356.511 196.623C356.631 196.743 356.691 196.89 356.691 197.063C356.691 197.237 356.631 197.383 356.511 197.503C356.398 197.623 356.258 197.683 356.091 197.683ZM357.78 198.213C357.78 197.067 357.967 196.173 358.34 195.533C358.713 194.887 359.367 194.563 360.3 194.563C361.227 194.563 361.877 194.887 362.25 195.533C362.623 196.173 362.81 197.067 362.81 198.213C362.81 199.38 362.623 200.287 362.25 200.933C361.877 201.58 361.227 201.903 360.3 201.903C359.367 201.903 358.713 201.58 358.34 200.933C357.967 200.287 357.78 199.38 357.78 198.213ZM361.91 198.213C361.91 197.633 361.87 197.143 361.79 196.743C361.717 196.337 361.56 196.01 361.32 195.763C361.087 195.517 360.747 195.393 360.3 195.393C359.847 195.393 359.5 195.517 359.26 195.763C359.027 196.01 358.87 196.337 358.79 196.743C358.717 197.143 358.68 197.633 358.68 198.213C358.68 198.813 358.717 199.317 358.79 199.723C358.87 200.13 359.027 200.457 359.26 200.703C359.5 200.95 359.847 201.073 360.3 201.073C360.747 201.073 361.087 200.95 361.32 200.703C361.56 200.457 361.717 200.13 361.79 199.723C361.87 199.317 361.91 198.813 361.91 198.213ZM364.059 198.213C364.059 197.067 364.246 196.173 364.619 195.533C364.993 194.887 365.646 194.563 366.579 194.563C367.506 194.563 368.156 194.887 368.529 195.533C368.903 196.173 369.089 197.067 369.089 198.213C369.089 199.38 368.903 200.287 368.529 200.933C368.156 201.58 367.506 201.903 366.579 201.903C365.646 201.903 364.993 201.58 364.619 200.933C364.246 200.287 364.059 199.38 364.059 198.213ZM368.189 198.213C368.189 197.633 368.149 197.143 368.069 196.743C367.996 196.337 367.839 196.01 367.599 195.763C367.366 195.517 367.026 195.393 366.579 195.393C366.126 195.393 365.779 195.517 365.539 195.763C365.306 196.01 365.149 196.337 365.069 196.743C364.996 197.143 364.959 197.633 364.959 198.213C364.959 198.813 364.996 199.317 365.069 199.723C365.149 200.13 365.306 200.457 365.539 200.703C365.779 200.95 366.126 201.073 366.579 201.073C367.026 201.073 367.366 200.95 367.599 200.703C367.839 200.457 367.996 200.13 368.069 199.723C368.149 199.317 368.189 198.813 368.189 198.213Z" fill="black" fill-opacity="0.7"/>
<defs>
<filter id="filter0_d_1_758" x="0" y="0" width="437.355" height="336" filterUnits="userSpaceOnUse" color-interpolation-filters="sRGB">
<feFlood flood-opacity="0" result="BackgroundImageFix"/>
<feColorMatrix in="SourceAlpha" type="matrix" values="0 0 0 0 0 0 0 0 0 0 0 0 0 0 0 0 0 0 127 0" result="hardAlpha"/>
<feMorphology radius="20" operator="erode" in="SourceAlpha" result="effect1_dropShadow_1_758"/>
<feOffset dy="64"/>
<feGaussianBlur stdDeviation="32"/>
<feComposite in2="hardAlpha" operator="out"/>
<feColorMatrix type="matrix" values="0 0 0 0 0 0 0 0 0 0 0 0 0 0 0 0 0 0 0.1 0"/>
<feBlend mode="normal" in2="BackgroundImageFix" result="effect1_dropShadow_1_758"/>
<feBlend mode="normal" in="SourceGraphic" in2="effect1_dropShadow_1_758" result="shape"/>
</filter>
<clipPath id="clip0_1_758">
<rect width="10" height="10" fill="white" transform="translate(350 30)"/>
</clipPath>
</defs>
</svg>
