<svg width="475" height="199" viewBox="0 0 475 199" fill="none" xmlns="http://www.w3.org/2000/svg">
<g filter="url(#filter0_d_1_736)">
<rect x="44" width="386.75" height="91" rx="30" fill="white"/>
</g>
<rect opacity="0.05" x="360.225" y="22.75" width="45.5" height="45.5" rx="13" fill="#FF553E"/>
<g clip-path="url(#clip0_1_736)">
<path d="M375.391 54.9792C375.391 52.968 376.19 51.0392 377.612 49.617C379.034 48.1949 380.963 47.3959 382.974 47.3959C384.985 47.3959 386.914 48.1949 388.336 49.617C389.758 51.0392 390.557 52.968 390.557 54.9792H388.661C388.661 53.4708 388.062 52.0242 386.996 50.9576C385.929 49.891 384.482 49.2917 382.974 49.2917C381.466 49.2917 380.019 49.891 378.952 50.9576C377.886 52.0242 377.286 53.4708 377.286 54.9792H375.391ZM382.974 46.448C379.832 46.448 377.286 43.9028 377.286 40.7605C377.286 37.6182 379.832 35.073 382.974 35.073C386.116 35.073 388.661 37.6182 388.661 40.7605C388.661 43.9028 386.116 46.448 382.974 46.448ZM382.974 44.5522C385.069 44.5522 386.766 42.8554 386.766 40.7605C386.766 38.6656 385.069 36.9688 382.974 36.9688C380.879 36.9688 379.182 38.6656 379.182 40.7605C379.182 42.8554 380.879 44.5522 382.974 44.5522Z" fill="#FF553E"/>
</g>
<rect opacity="0.05" x="262.4" y="22.75" width="45.5" height="45.5" rx="13" fill="#FF553E"/>
<g clip-path="url(#clip1_1_736)">
<path d="M289.891 36.9688H293.682C293.934 36.9688 294.175 37.0687 294.353 37.2465C294.53 37.4242 294.63 37.6653 294.63 37.9167V53.0834C294.63 53.3348 294.53 53.5759 294.353 53.7537C294.175 53.9315 293.934 54.0313 293.682 54.0313H276.62C276.368 54.0313 276.127 53.9315 275.95 53.7537C275.772 53.5759 275.672 53.3348 275.672 53.0834V37.9167C275.672 37.6653 275.772 37.4242 275.95 37.2465C276.127 37.0687 276.368 36.9688 276.62 36.9688H280.411V35.073H282.307V36.9688H287.995V35.073H289.891V36.9688ZM287.995 38.8647H282.307V40.7605H280.411V38.8647H277.568V42.6563H292.734V38.8647H289.891V40.7605H287.995V38.8647ZM292.734 44.5522H277.568V52.1355H292.734V44.5522Z" fill="#FF553E"/>
</g>
<rect opacity="0.05" x="164.574" y="22.75" width="45.5" height="45.5" rx="13" fill="#FF553E"/>
<g clip-path="url(#clip2_1_736)">
<path d="M179.742 50.2396V54.9792H177.846V36.9688H195.987C196.07 36.9686 196.152 36.9903 196.224 37.0317C196.296 37.073 196.356 37.1326 196.397 37.2044C196.439 37.2763 196.461 37.3578 196.462 37.4409C196.462 37.5239 196.44 37.6057 196.399 37.6778L193.012 43.6042L196.399 49.5305C196.44 49.6027 196.462 49.6844 196.462 49.7675C196.461 49.8505 196.439 49.9321 196.397 50.0039C196.356 50.0757 196.296 50.1353 196.224 50.1767C196.152 50.218 196.07 50.2397 195.987 50.2396H179.742ZM179.742 38.8646V48.3438H193.538L190.828 43.6042L193.538 38.8646H179.742Z" fill="#FF553E"/>
</g>
<rect x="66.75" y="22.75" width="45.5" height="45.5" rx="13" fill="#FF553E"/>
<g clip-path="url(#clip3_1_736)">
<path d="M93.2917 50.2396V49.2917H90.4479V46.4479H93.2917V48.3438H95.1875V50.2396H94.2396V52.1354H92.3438V54.0312H90.4479V51.1875H92.3438V50.2396H93.2917ZM98.0312 54.0312H94.2396V52.1354H96.1354V50.2396H98.0312V54.0312ZM80.9688 36.9688H88.5521V44.5521H80.9688V36.9688ZM82.8646 38.8646V42.6562H86.6562V38.8646H82.8646ZM90.4479 36.9688H98.0312V44.5521H90.4479V36.9688ZM92.3438 38.8646V42.6562H96.1354V38.8646H92.3438ZM80.9688 46.4479H88.5521V54.0312H80.9688V46.4479ZM82.8646 48.3438V52.1354H86.6562V48.3438H82.8646ZM95.1875 46.4479H98.0312V48.3438H95.1875V46.4479ZM83.8125 39.8125H85.7083V41.7083H83.8125V39.8125ZM83.8125 49.2917H85.7083V51.1875H83.8125V49.2917ZM93.2917 39.8125H95.1875V41.7083H93.2917V39.8125Z" fill="white"/>
</g>
<defs>
<filter id="filter0_d_1_736" x="0" y="0" width="474.75" height="199" filterUnits="userSpaceOnUse" color-interpolation-filters="sRGB">
<feFlood flood-opacity="0" result="BackgroundImageFix"/>
<feColorMatrix in="SourceAlpha" type="matrix" values="0 0 0 0 0 0 0 0 0 0 0 0 0 0 0 0 0 0 127 0" result="hardAlpha"/>
<feMorphology radius="20" operator="erode" in="SourceAlpha" result="effect1_dropShadow_1_736"/>
<feOffset dy="64"/>
<feGaussianBlur stdDeviation="32"/>
<feComposite in2="hardAlpha" operator="out"/>
<feColorMatrix type="matrix" values="0 0 0 0 0 0 0 0 0 0 0 0 0 0 0 0 0 0 0.1 0"/>
<feBlend mode="normal" in2="BackgroundImageFix" result="effect1_dropShadow_1_736"/>
<feBlend mode="normal" in="SourceGraphic" in2="effect1_dropShadow_1_736" result="shape"/>
</filter>
<clipPath id="clip0_1_736">
<rect width="22.75" height="22.75" fill="white" transform="translate(371.6 34.125)"/>
</clipPath>
<clipPath id="clip1_1_736">
<rect width="22.75" height="22.75" fill="white" transform="translate(273.775 34.125)"/>
</clipPath>
<clipPath id="clip2_1_736">
<rect width="22.75" height="22.75" fill="white" transform="translate(175.949 34.125)"/>
</clipPath>
<clipPath id="clip3_1_736">
<rect width="22.75" height="22.75" fill="white" transform="translate(78.125 34.125)"/>
</clipPath>
</defs>
</svg>
