<svg width="44" height="48" viewBox="0 0 44 48" fill="none" xmlns="http://www.w3.org/2000/svg">
<path d="M43.2379 9.60269L24.6153 8.08704L0.763672 9.60269V46.8253C0.763672 47.474 1.28952 47.9999 1.93827 47.9999H42.0631C42.7119 47.9999 43.238 47.4738 43.238 46.825L43.2379 9.60269Z" fill="#F6F9F9"/>
<path d="M43.2379 9.60267L39.3747 7.67114V37.1131C39.3747 42.0589 35.3653 46.0683 30.4195 46.0683H0.763672V46.8253C0.763672 47.474 1.28952 47.9999 1.93827 47.9999H42.063C42.7118 47.9999 43.2379 47.4739 43.2379 46.825V9.60267Z" fill="#E7ECF1"/>
<path d="M42.0631 2.73987H1.93845C1.28961 2.73987 0.763672 3.26581 0.763672 3.91465V9.60274H43.2379V3.91465C43.2379 3.26581 42.7119 2.73987 42.0631 2.73987Z" fill="#61A2F9"/>
<path d="M42.0635 2.73987H39.375V9.60274H43.2382V3.91465C43.2382 3.26581 42.7122 2.73987 42.0635 2.73987Z" fill="#5490F9"/>
<path d="M6.76797 6.46556H6.10797C5.46156 6.46556 4.9375 5.9415 4.9375 5.29509V1.17047C4.9375 0.524062 5.46156 0 6.10797 0H6.76797C7.41437 0 7.93844 0.524062 7.93844 1.17047V5.295C7.93844 5.9415 7.41447 6.46556 6.76797 6.46556Z" fill="#DAE4EA"/>
<path d="M14.5492 6.46556H13.8892C13.2428 6.46556 12.7188 5.9415 12.7188 5.29509V1.17047C12.7188 0.524062 13.2428 0 13.8892 0H14.5492C15.1956 0 15.7197 0.524062 15.7197 1.17047V5.295C15.7197 5.9415 15.1957 6.46556 14.5492 6.46556Z" fill="#DAE4EA"/>
<path d="M22.3324 6.46556H21.6724C21.026 6.46556 20.502 5.9415 20.502 5.29509V1.17047C20.502 0.524062 21.026 0 21.6724 0H22.3324C22.9788 0 23.5029 0.524062 23.5029 1.17047V5.295C23.5029 5.9415 22.9788 6.46556 22.3324 6.46556Z" fill="#DAE4EA"/>
<path d="M30.1137 6.46556H29.4537C28.8073 6.46556 28.2832 5.9415 28.2832 5.29509V1.17047C28.2832 0.524062 28.8072 0 29.4537 0H30.1137C30.7601 0 31.2841 0.524062 31.2841 1.17047V5.295C31.2841 5.9415 30.7601 6.46556 30.1137 6.46556Z" fill="#DAE4EA"/>
<path d="M37.8949 6.46556H37.2349C36.5885 6.46556 36.0645 5.9415 36.0645 5.29509V1.17047C36.0645 0.524062 36.5884 0 37.2349 0H37.8949C38.5413 0 39.0654 0.524062 39.0654 1.17047V5.295C39.0654 5.9415 38.5413 6.46556 37.8949 6.46556Z" fill="#DAE4EA"/>
<path d="M34.1471 22.8461L31.1064 19.8054C30.8615 19.5605 30.4644 19.5605 30.2194 19.8054L19.7193 30.3055C19.6852 30.3397 19.63 30.3397 19.5959 30.3055L13.7994 24.5091C13.5544 24.2641 13.1574 24.2641 12.9124 24.5091L9.85365 27.5678C9.60868 27.8128 9.60868 28.2098 9.85365 28.4548L19.196 37.7971C19.441 38.0421 19.838 38.042 20.083 37.7971L34.1471 23.733C34.392 23.4881 34.392 23.0911 34.1471 22.8461Z" fill="#80E29D"/>
</svg>
