<svg width="239" height="287" viewBox="0 0 239 287" fill="none" xmlns="http://www.w3.org/2000/svg">
<g filter="url(#filter0_d_1_780)">
<rect x="44" y="-0.000244141" width="151" height="179" rx="14" fill="white"/>
</g>
<path opacity="0.4" d="M73.072 137.636V138.524H70.792V146H69.7V138.524H67.408V137.636H73.072ZM77.2842 146.108C76.6682 146.108 76.1082 145.968 75.6042 145.688C75.1082 145.408 74.7162 145.012 74.4282 144.5C74.1482 143.98 74.0082 143.38 74.0082 142.7C74.0082 142.028 74.1522 141.436 74.4402 140.924C74.7362 140.404 75.1362 140.008 75.6402 139.736C76.1442 139.456 76.7082 139.316 77.3322 139.316C77.9562 139.316 78.5202 139.456 79.0242 139.736C79.5282 140.008 79.9242 140.4 80.2122 140.912C80.5082 141.424 80.6562 142.02 80.6562 142.7C80.6562 143.38 80.5042 143.98 80.2002 144.5C79.9042 145.012 79.5002 145.408 78.9882 145.688C78.4762 145.968 77.9082 146.108 77.2842 146.108ZM77.2842 145.148C77.6762 145.148 78.0442 145.056 78.3882 144.872C78.7322 144.688 79.0082 144.412 79.2162 144.044C79.4322 143.676 79.5402 143.228 79.5402 142.7C79.5402 142.172 79.4362 141.724 79.2282 141.356C79.0202 140.988 78.7482 140.716 78.4122 140.54C78.0762 140.356 77.7122 140.264 77.3202 140.264C76.9202 140.264 76.5522 140.356 76.2162 140.54C75.8882 140.716 75.6242 140.988 75.4242 141.356C75.2242 141.724 75.1242 142.172 75.1242 142.7C75.1242 143.236 75.2202 143.688 75.4122 144.056C75.6122 144.424 75.8762 144.7 76.2042 144.884C76.5322 145.06 76.8922 145.148 77.2842 145.148ZM83.424 140.324V144.2C83.424 144.52 83.492 144.748 83.628 144.884C83.764 145.012 84 145.076 84.336 145.076H85.14V146H84.156C83.548 146 83.092 145.86 82.788 145.58C82.484 145.3 82.332 144.84 82.332 144.2V140.324H81.48V139.424H82.332V137.768H83.424V139.424H85.14V140.324H83.424ZM86.0551 142.688C86.0551 142.016 86.1911 141.428 86.4631 140.924C86.7351 140.412 87.1071 140.016 87.5791 139.736C88.0591 139.456 88.5911 139.316 89.1751 139.316C89.7511 139.316 90.2511 139.44 90.6751 139.688C91.0991 139.936 91.4151 140.248 91.6231 140.624V139.424H92.7271V146H91.6231V144.776C91.4071 145.16 91.0831 145.48 90.6511 145.736C90.2271 145.984 89.7311 146.108 89.1631 146.108C88.5791 146.108 88.0511 145.964 87.5791 145.676C87.1071 145.388 86.7351 144.984 86.4631 144.464C86.1911 143.944 86.0551 143.352 86.0551 142.688ZM91.6231 142.7C91.6231 142.204 91.5231 141.772 91.3231 141.404C91.1231 141.036 90.8511 140.756 90.5071 140.564C90.1711 140.364 89.7991 140.264 89.3911 140.264C88.9831 140.264 88.6111 140.36 88.2751 140.552C87.9391 140.744 87.6711 141.024 87.4711 141.392C87.2711 141.76 87.1711 142.192 87.1711 142.688C87.1711 143.192 87.2711 143.632 87.4711 144.008C87.6711 144.376 87.9391 144.66 88.2751 144.86C88.6111 145.052 88.9831 145.148 89.3911 145.148C89.7991 145.148 90.1711 145.052 90.5071 144.86C90.8511 144.66 91.1231 144.376 91.3231 144.008C91.5231 143.632 91.6231 143.196 91.6231 142.7ZM95.6644 137.12V146H94.5724V137.12H95.6644ZM102.057 140.324V144.2C102.057 144.52 102.125 144.748 102.261 144.884C102.397 145.012 102.633 145.076 102.969 145.076H103.773V146H102.789C102.181 146 101.725 145.86 101.421 145.58C101.117 145.3 100.965 144.84 100.965 144.2V140.324H100.113V139.424H100.965V137.768H102.057V139.424H103.773V140.324H102.057ZM104.688 142.688C104.688 142.016 104.824 141.428 105.096 140.924C105.368 140.412 105.74 140.016 106.212 139.736C106.692 139.456 107.224 139.316 107.808 139.316C108.384 139.316 108.884 139.44 109.308 139.688C109.732 139.936 110.048 140.248 110.256 140.624V139.424H111.36V146H110.256V144.776C110.04 145.16 109.716 145.48 109.284 145.736C108.86 145.984 108.364 146.108 107.796 146.108C107.212 146.108 106.684 145.964 106.212 145.676C105.74 145.388 105.368 144.984 105.096 144.464C104.824 143.944 104.688 143.352 104.688 142.688ZM110.256 142.7C110.256 142.204 110.156 141.772 109.956 141.404C109.756 141.036 109.484 140.756 109.14 140.564C108.804 140.364 108.432 140.264 108.024 140.264C107.616 140.264 107.244 140.36 106.908 140.552C106.572 140.744 106.304 141.024 106.104 141.392C105.904 141.76 105.804 142.192 105.804 142.688C105.804 143.192 105.904 143.632 106.104 144.008C106.304 144.376 106.572 144.66 106.908 144.86C107.244 145.052 107.616 145.148 108.024 145.148C108.432 145.148 108.804 145.052 109.14 144.86C109.484 144.66 109.756 144.376 109.956 144.008C110.156 143.632 110.256 143.196 110.256 142.7ZM116.877 146L114.297 143.096V146H113.205V137.12H114.297V142.34L116.829 139.424H118.353L115.257 142.7L118.365 146H116.877ZM125.381 142.46C125.381 142.668 125.369 142.888 125.345 143.12H120.089C120.129 143.768 120.349 144.276 120.749 144.644C121.157 145.004 121.649 145.184 122.225 145.184C122.697 145.184 123.089 145.076 123.401 144.86C123.721 144.636 123.945 144.34 124.073 143.972H125.249C125.073 144.604 124.721 145.12 124.193 145.52C123.665 145.912 123.009 146.108 122.225 146.108C121.601 146.108 121.041 145.968 120.545 145.688C120.057 145.408 119.673 145.012 119.393 144.5C119.113 143.98 118.973 143.38 118.973 142.7C118.973 142.02 119.109 141.424 119.381 140.912C119.653 140.4 120.033 140.008 120.521 139.736C121.017 139.456 121.585 139.316 122.225 139.316C122.849 139.316 123.401 139.452 123.881 139.724C124.361 139.996 124.729 140.372 124.985 140.852C125.249 141.324 125.381 141.86 125.381 142.46ZM124.253 142.232C124.253 141.816 124.161 141.46 123.977 141.164C123.793 140.86 123.541 140.632 123.221 140.48C122.909 140.32 122.561 140.24 122.177 140.24C121.625 140.24 121.153 140.416 120.761 140.768C120.377 141.12 120.157 141.608 120.101 142.232H124.253ZM130.026 139.304C130.826 139.304 131.474 139.548 131.97 140.036C132.466 140.516 132.714 141.212 132.714 142.124V146H131.634V142.28C131.634 141.624 131.47 141.124 131.142 140.78C130.814 140.428 130.366 140.252 129.798 140.252C129.222 140.252 128.762 140.432 128.418 140.792C128.082 141.152 127.914 141.676 127.914 142.364V146H126.822V139.424H127.914V140.36C128.13 140.024 128.422 139.764 128.79 139.58C129.166 139.396 129.578 139.304 130.026 139.304ZM140.025 146.108C139.521 146.108 139.069 146.024 138.669 145.856C138.269 145.68 137.953 145.44 137.721 145.136C137.489 144.824 137.361 144.468 137.337 144.068H138.465C138.497 144.396 138.649 144.664 138.921 144.872C139.201 145.08 139.565 145.184 140.013 145.184C140.429 145.184 140.757 145.092 140.997 144.908C141.237 144.724 141.357 144.492 141.357 144.212C141.357 143.924 141.229 143.712 140.973 143.576C140.717 143.432 140.321 143.292 139.785 143.156C139.297 143.028 138.897 142.9 138.585 142.772C138.281 142.636 138.017 142.44 137.793 142.184C137.577 141.92 137.469 141.576 137.469 141.152C137.469 140.816 137.569 140.508 137.769 140.228C137.969 139.948 138.253 139.728 138.621 139.568C138.989 139.4 139.409 139.316 139.881 139.316C140.609 139.316 141.197 139.5 141.645 139.868C142.093 140.236 142.333 140.74 142.365 141.38H141.273C141.249 141.036 141.109 140.76 140.853 140.552C140.605 140.344 140.269 140.24 139.845 140.24C139.453 140.24 139.141 140.324 138.909 140.492C138.677 140.66 138.561 140.88 138.561 141.152C138.561 141.368 138.629 141.548 138.765 141.692C138.909 141.828 139.085 141.94 139.293 142.028C139.509 142.108 139.805 142.2 140.181 142.304C140.653 142.432 141.037 142.56 141.333 142.688C141.629 142.808 141.881 142.992 142.089 143.24C142.305 143.488 142.417 143.812 142.425 144.212C142.425 144.572 142.325 144.896 142.125 145.184C141.925 145.472 141.641 145.7 141.273 145.868C140.913 146.028 140.497 146.108 140.025 146.108ZM149.967 142.46C149.967 142.668 149.955 142.888 149.931 143.12H144.675C144.715 143.768 144.935 144.276 145.335 144.644C145.743 145.004 146.235 145.184 146.811 145.184C147.283 145.184 147.675 145.076 147.987 144.86C148.307 144.636 148.531 144.34 148.659 143.972H149.835C149.659 144.604 149.307 145.12 148.779 145.52C148.251 145.912 147.595 146.108 146.811 146.108C146.187 146.108 145.627 145.968 145.131 145.688C144.643 145.408 144.259 145.012 143.979 144.5C143.699 143.98 143.559 143.38 143.559 142.7C143.559 142.02 143.695 141.424 143.967 140.912C144.239 140.4 144.619 140.008 145.107 139.736C145.603 139.456 146.171 139.316 146.811 139.316C147.435 139.316 147.987 139.452 148.467 139.724C148.947 139.996 149.315 140.372 149.571 140.852C149.835 141.324 149.967 141.86 149.967 142.46ZM148.839 142.232C148.839 141.816 148.747 141.46 148.563 141.164C148.379 140.86 148.127 140.632 147.807 140.48C147.495 140.32 147.147 140.24 146.763 140.24C146.211 140.24 145.739 140.416 145.347 140.768C144.963 141.12 144.743 141.608 144.687 142.232H148.839ZM151 142.688C151 142.016 151.136 141.428 151.408 140.924C151.68 140.412 152.052 140.016 152.524 139.736C153.004 139.456 153.536 139.316 154.12 139.316C154.696 139.316 155.196 139.44 155.62 139.688C156.044 139.936 156.36 140.248 156.568 140.624V139.424H157.672V146H156.568V144.776C156.352 145.16 156.028 145.48 155.596 145.736C155.172 145.984 154.676 146.108 154.108 146.108C153.524 146.108 152.996 145.964 152.524 145.676C152.052 145.388 151.68 144.984 151.408 144.464C151.136 143.944 151 143.352 151 142.688ZM156.568 142.7C156.568 142.204 156.468 141.772 156.268 141.404C156.068 141.036 155.796 140.756 155.452 140.564C155.116 140.364 154.744 140.264 154.336 140.264C153.928 140.264 153.556 140.36 153.22 140.552C152.884 140.744 152.616 141.024 152.416 141.392C152.216 141.76 152.116 142.192 152.116 142.688C152.116 143.192 152.216 143.632 152.416 144.008C152.616 144.376 152.884 144.66 153.22 144.86C153.556 145.052 153.928 145.148 154.336 145.148C154.744 145.148 155.116 145.052 155.452 144.86C155.796 144.66 156.068 144.376 156.268 144.008C156.468 143.632 156.568 143.196 156.568 142.7ZM160.85 140.324V144.2C160.85 144.52 160.918 144.748 161.054 144.884C161.19 145.012 161.426 145.076 161.762 145.076H162.566V146H161.582C160.974 146 160.518 145.86 160.214 145.58C159.91 145.3 159.758 144.84 159.758 144.2V140.324H158.906V139.424H159.758V137.768H160.85V139.424H162.566V140.324H160.85Z" fill="black"/>
<path opacity="0.8" d="M68.32 106.112C68.4 104.512 68.96 103.28 70 102.416C71.056 101.536 72.44 101.096 74.152 101.096C75.32 101.096 76.32 101.304 77.152 101.72C77.984 102.12 78.608 102.672 79.024 103.376C79.456 104.064 79.672 104.848 79.672 105.728C79.672 106.736 79.408 107.592 78.88 108.296C78.368 108.984 77.752 109.448 77.032 109.688V109.784C77.96 110.072 78.68 110.584 79.192 111.32C79.72 112.056 79.984 113 79.984 114.152C79.984 115.112 79.76 115.968 79.312 116.72C78.88 117.472 78.232 118.064 77.368 118.496C76.52 118.912 75.496 119.12 74.296 119.12C72.488 119.12 71.016 118.664 69.88 117.752C68.744 116.84 68.144 115.496 68.08 113.72H71.344C71.376 114.504 71.64 115.136 72.136 115.616C72.648 116.08 73.344 116.312 74.224 116.312C75.04 116.312 75.664 116.088 76.096 115.64C76.544 115.176 76.768 114.584 76.768 113.864C76.768 112.904 76.464 112.216 75.856 111.8C75.248 111.384 74.304 111.176 73.024 111.176H72.328V108.416H73.024C75.296 108.416 76.432 107.656 76.432 106.136C76.432 105.448 76.224 104.912 75.808 104.528C75.408 104.144 74.824 103.952 74.056 103.952C73.304 103.952 72.72 104.16 72.304 104.576C71.904 104.976 71.672 105.488 71.608 106.112H68.32ZM91.7112 105.872C91.5512 105.2 91.2712 104.696 90.8712 104.36C90.4872 104.024 89.9272 103.856 89.1912 103.856C88.0872 103.856 87.2712 104.304 86.7432 105.2C86.2312 106.08 85.9672 107.52 85.9512 109.52C86.3352 108.88 86.8952 108.384 87.6312 108.032C88.3672 107.664 89.1672 107.48 90.0312 107.48C91.0712 107.48 91.9912 107.704 92.7912 108.152C93.5912 108.6 94.2152 109.256 94.6632 110.12C95.1112 110.968 95.3352 111.992 95.3352 113.192C95.3352 114.328 95.1032 115.344 94.6392 116.24C94.1912 117.12 93.5272 117.808 92.6472 118.304C91.7672 118.8 90.7192 119.048 89.5032 119.048C87.8392 119.048 86.5272 118.68 85.5672 117.944C84.6232 117.208 83.9592 116.184 83.5752 114.872C83.2072 113.544 83.0232 111.912 83.0232 109.976C83.0232 107.048 83.5272 104.84 84.5352 103.352C85.5432 101.848 87.1352 101.096 89.3112 101.096C90.9912 101.096 92.2952 101.552 93.2232 102.464C94.1512 103.376 94.6872 104.512 94.8312 105.872H91.7112ZM89.2632 110.24C88.4152 110.24 87.7032 110.488 87.1272 110.984C86.5512 111.48 86.2632 112.2 86.2632 113.144C86.2632 114.088 86.5272 114.832 87.0552 115.376C87.5992 115.92 88.3592 116.192 89.3352 116.192C90.1992 116.192 90.8792 115.928 91.3752 115.4C91.8872 114.872 92.1432 114.16 92.1432 113.264C92.1432 112.336 91.8952 111.6 91.3992 111.056C90.9192 110.512 90.2072 110.24 89.2632 110.24ZM99.8628 119.168C99.2548 119.168 98.7508 118.984 98.3508 118.616C97.9668 118.232 97.7748 117.76 97.7748 117.2C97.7748 116.64 97.9668 116.176 98.3508 115.808C98.7508 115.424 99.2548 115.232 99.8628 115.232C100.455 115.232 100.943 115.424 101.327 115.808C101.711 116.176 101.903 116.64 101.903 117.2C101.903 117.76 101.711 118.232 101.327 118.616C100.943 118.984 100.455 119.168 99.8628 119.168ZM103.817 104.6V101.504H109.601V119H106.145V104.6H103.817ZM121.176 119L116.664 113.336V119H113.304V101.24H116.664V111.344L121.128 105.704H125.496L119.64 112.376L125.544 119H121.176Z" fill="black"/>
<path opacity="0.5" d="M153.456 44.3198V43.3238H155.712V51.9998H154.608V44.3198H153.456ZM157.588 47.5718C157.588 46.1958 157.812 45.1238 158.26 44.3558C158.708 43.5798 159.492 43.1918 160.612 43.1918C161.724 43.1918 162.504 43.5798 162.952 44.3558C163.4 45.1238 163.624 46.1958 163.624 47.5718C163.624 48.9718 163.4 50.0598 162.952 50.8358C162.504 51.6118 161.724 51.9998 160.612 51.9998C159.492 51.9998 158.708 51.6118 158.26 50.8358C157.812 50.0598 157.588 48.9718 157.588 47.5718ZM162.544 47.5718C162.544 46.8758 162.496 46.2878 162.4 45.8078C162.312 45.3198 162.124 44.9278 161.836 44.6318C161.556 44.3358 161.148 44.1878 160.612 44.1878C160.068 44.1878 159.652 44.3358 159.364 44.6318C159.084 44.9278 158.896 45.3198 158.8 45.8078C158.712 46.2878 158.668 46.8758 158.668 47.5718C158.668 48.2918 158.712 48.8958 158.8 49.3838C158.896 49.8718 159.084 50.2638 159.364 50.5598C159.652 50.8558 160.068 51.0038 160.612 51.0038C161.148 51.0038 161.556 50.8558 161.836 50.5598C162.124 50.2638 162.312 49.8718 162.4 49.3838C162.496 48.8958 162.544 48.2918 162.544 47.5718ZM164.883 45.2798C164.883 44.7358 165.047 44.3038 165.375 43.9838C165.703 43.6558 166.123 43.4918 166.635 43.4918C167.147 43.4918 167.567 43.6558 167.895 43.9838C168.223 44.3038 168.387 44.7358 168.387 45.2798C168.387 45.8318 168.223 46.2718 167.895 46.5998C167.567 46.9198 167.147 47.0798 166.635 47.0798C166.123 47.0798 165.703 46.9198 165.375 46.5998C165.047 46.2718 164.883 45.8318 164.883 45.2798ZM171.891 43.6238L167.031 51.9998H165.951L170.811 43.6238H171.891ZM166.635 44.1638C166.363 44.1638 166.147 44.2598 165.987 44.4518C165.835 44.6358 165.759 44.9118 165.759 45.2798C165.759 45.6478 165.835 45.9278 165.987 46.1198C166.147 46.3118 166.363 46.4078 166.635 46.4078C166.907 46.4078 167.123 46.3118 167.283 46.1198C167.443 45.9198 167.523 45.6398 167.523 45.2798C167.523 44.9118 167.443 44.6358 167.283 44.4518C167.123 44.2598 166.907 44.1638 166.635 44.1638ZM169.479 50.3438C169.479 49.7918 169.643 49.3558 169.971 49.0358C170.299 48.7078 170.719 48.5438 171.231 48.5438C171.743 48.5438 172.159 48.7078 172.479 49.0358C172.807 49.3558 172.971 49.7918 172.971 50.3438C172.971 50.8878 172.807 51.3238 172.479 51.6518C172.159 51.9798 171.743 52.1438 171.231 52.1438C170.719 52.1438 170.299 51.9838 169.971 51.6638C169.643 51.3358 169.479 50.8958 169.479 50.3438ZM171.219 49.2278C170.947 49.2278 170.731 49.3238 170.571 49.5158C170.411 49.6998 170.331 49.9758 170.331 50.3438C170.331 50.7038 170.411 50.9798 170.571 51.1718C170.731 51.3558 170.947 51.4478 171.219 51.4478C171.491 51.4478 171.707 51.3558 171.867 51.1718C172.027 50.9798 172.107 50.7038 172.107 50.3438C172.107 49.9758 172.027 49.6998 171.867 49.5158C171.707 49.3238 171.491 49.2278 171.219 49.2278Z" fill="black"/>
<g clip-path="url(#clip0_1_780)">
<path d="M140 47.1208L136.288 50.8333L135.227 49.7728L140 44.9998L144.773 49.7728L143.713 50.8333L140 47.1208Z" fill="#62CA76"/>
</g>
<rect x="67" y="22.9998" width="50" height="50" rx="11" fill="#FF553E" fill-opacity="0.15"/>
<g clip-path="url(#clip1_1_780)">
<path d="M81.334 52.3331C81.334 50.565 82.0364 48.8693 83.2866 47.6191C84.5368 46.3688 86.2325 45.6665 88.0007 45.6665C89.7688 45.6665 91.4645 46.3688 92.7147 47.6191C93.9649 48.8693 94.6673 50.565 94.6673 52.3331H93.0007C93.0007 51.007 92.4739 49.7353 91.5362 48.7976C90.5985 47.8599 89.3267 47.3331 88.0007 47.3331C86.6746 47.3331 85.4028 47.8599 84.4651 48.7976C83.5274 49.7353 83.0007 51.007 83.0007 52.3331H81.334ZM88.0007 44.8331C85.2382 44.8331 83.0007 42.5956 83.0007 39.8331C83.0007 37.0706 85.2382 34.8331 88.0007 34.8331C90.7632 34.8331 93.0007 37.0706 93.0007 39.8331C93.0007 42.5956 90.7632 44.8331 88.0007 44.8331ZM88.0007 43.1665C89.8423 43.1665 91.334 41.6748 91.334 39.8331C91.334 37.9915 89.8423 36.4998 88.0007 36.4998C86.159 36.4998 84.6673 37.9915 84.6673 39.8331C84.6673 41.6748 86.159 43.1665 88.0007 43.1665Z" fill="#FF553E"/>
</g>
<defs>
<filter id="filter0_d_1_780" x="0" y="-0.000244141" width="239" height="287" filterUnits="userSpaceOnUse" color-interpolation-filters="sRGB">
<feFlood flood-opacity="0" result="BackgroundImageFix"/>
<feColorMatrix in="SourceAlpha" type="matrix" values="0 0 0 0 0 0 0 0 0 0 0 0 0 0 0 0 0 0 127 0" result="hardAlpha"/>
<feMorphology radius="20" operator="erode" in="SourceAlpha" result="effect1_dropShadow_1_780"/>
<feOffset dy="64"/>
<feGaussianBlur stdDeviation="32"/>
<feComposite in2="hardAlpha" operator="out"/>
<feColorMatrix type="matrix" values="0 0 0 0 0 0 0 0 0 0 0 0 0 0 0 0 0 0 0.1 0"/>
<feBlend mode="normal" in2="BackgroundImageFix" result="effect1_dropShadow_1_780"/>
<feBlend mode="normal" in="SourceGraphic" in2="effect1_dropShadow_1_780" result="shape"/>
</filter>
<clipPath id="clip0_1_780">
<rect width="18" height="18" fill="white" transform="translate(149 56.9998) rotate(-180)"/>
</clipPath>
<clipPath id="clip1_1_780">
<rect width="20" height="20" fill="white" transform="translate(78 33.9998)"/>
</clipPath>
</defs>
</svg>
