<svg width="52" height="68" viewBox="0 0 52 68" fill="none" xmlns="http://www.w3.org/2000/svg">
<path d="M15.0013 20.4739L12.8245 16.7037L10.645 16.5416L9.8418 18.4258L12.0202 22.1988C13.585 22.4859 14.7475 21.8792 15.0013 20.4739Z" fill="#B9C1CB"/>
<path d="M36.998 20.4739L39.1748 16.7037L41.3543 16.5416L42.1576 18.4258L39.9792 22.1988C38.4144 22.4859 37.2519 21.8792 36.998 20.4739Z" fill="#B9C1CB"/>
<path d="M27.7689 14.5942C30.5008 13.8115 32.4088 11.2774 32.4088 8.43206C32.4088 4.89792 29.5336 2.02279 25.9994 2.02279C22.4653 2.02279 19.59 4.89805 19.59 8.43206C19.59 11.2774 21.498 13.8115 24.23 14.5942L24.5071 16.7311C20.473 16.0098 17.5684 12.4577 17.5684 8.43192C17.5682 3.78309 21.3505 0.000854492 25.9994 0.000854492C30.6484 0.000854492 34.4306 3.78309 34.4306 8.43192C34.4306 12.4519 31.5345 15.9994 27.5096 16.7279L27.7689 14.5942Z" fill="#DAE4EA"/>
<path d="M25.9991 18.4876C26.6887 18.4876 27.3716 18.5198 28.047 18.5831V10.167H23.9512V18.5831C24.6267 18.5198 25.3096 18.4876 25.9991 18.4876Z" fill="#B9C1CB"/>
<path d="M25.9998 68.0006C39.8252 68.0006 51.0329 56.7929 51.0329 42.9675C51.0329 29.1422 39.8252 17.9345 25.9998 17.9345C12.1745 17.9345 0.966797 29.1422 0.966797 42.9675C0.966797 56.7929 12.1745 68.0006 25.9998 68.0006Z" fill="#DAE4EA"/>
<path d="M29.0328 6.13104H22.965C22.6639 6.13104 22.4199 6.37502 22.4199 6.67611V10.1874C22.4199 10.4885 22.6639 10.7325 22.965 10.7325H29.0328C29.3339 10.7325 29.5778 10.4885 29.5778 10.1874V6.67611C29.5778 6.37515 29.3337 6.13104 29.0328 6.13104Z" fill="#DAE4EA"/>
<path d="M13.135 16.5245L9.53167 18.6049C9.39607 18.6831 9.22275 18.6367 9.14452 18.5011L6.45202 13.8377C6.37379 13.7021 6.42014 13.5288 6.55574 13.4505L10.1591 11.3702C10.2947 11.2919 10.468 11.3383 10.5462 11.4739L13.2387 16.1373C13.3171 16.2728 13.2706 16.4461 13.135 16.5245Z" fill="#DAE4EA"/>
<path d="M38.8645 16.5245L42.4678 18.6049C42.6034 18.6831 42.7767 18.6367 42.8549 18.5011L45.5474 13.8377C45.6257 13.7021 45.5793 13.5288 45.4437 13.4505L41.8404 11.3702C41.7048 11.2919 41.5315 11.3383 41.4532 11.4739L38.7607 16.1373C38.6824 16.2728 38.7289 16.4461 38.8645 16.5245Z" fill="#DAE4EA"/>
<path d="M25.9995 63.4499C37.3114 63.4499 46.4815 54.2798 46.4815 42.968C46.4815 31.6561 37.3114 22.486 25.9995 22.486C14.6877 22.486 5.51758 31.6561 5.51758 42.968C5.51758 54.2798 14.6877 63.4499 25.9995 63.4499Z" fill="#F6F9F9"/>
<path d="M43.1125 42.9678C43.1125 33.5805 35.5144 25.9344 26.1451 25.8561C26.0654 25.8555 26.0001 25.9207 26.0001 26.0004V42.9678H9.03278C8.95309 42.9678 8.88801 43.0332 8.88868 43.1129C8.9669 52.4821 16.6129 60.0802 26.0004 60.0802C26.0386 60.0802 26.0767 60.0801 26.1147 60.0798C35.4979 60.0181 43.1125 52.3655 43.1125 42.9678Z" fill="#FFC954"/>
<path d="M30.8159 26.5454C35.0039 29.6677 37.721 34.6585 37.721 40.2721C37.721 49.6697 30.1063 57.3223 20.723 57.3839C20.685 57.3842 20.6469 57.3843 20.6086 57.3843C18.9372 57.3843 17.3211 57.1434 15.793 56.6945C18.6445 58.8204 22.1779 60.08 26.0001 60.08C26.0384 60.08 26.0765 60.0799 26.1145 60.0796C35.4978 60.018 43.1125 52.3654 43.1125 42.9678C43.1124 35.2035 37.9146 28.6304 30.8159 26.5454Z" fill="#E1A729"/>
</svg>
