<svg width="126" height="27" viewBox="0 0 126 27" fill="none" xmlns="http://www.w3.org/2000/svg">
<path d="M10.16 26.252C8.408 26.252 6.824 25.952 5.408 25.352C4.016 24.752 2.912 23.888 2.096 22.76C1.28 21.632 0.859998 20.3 0.835999 18.764H6.236C6.308 19.796 6.668 20.612 7.316 21.212C7.988 21.812 8.9 22.112 10.052 22.112C11.228 22.112 12.152 21.836 12.824 21.284C13.496 20.708 13.832 19.964 13.832 19.052C13.832 18.308 13.604 17.696 13.148 17.216C12.692 16.736 12.116 16.364 11.42 16.1C10.748 15.812 9.812 15.5 8.612 15.164C6.98 14.684 5.648 14.216 4.616 13.76C3.608 13.28 2.732 12.572 1.988 11.636C1.268 10.676 0.907999 9.40396 0.907999 7.81996C0.907999 6.33196 1.28 5.03596 2.024 3.93196C2.768 2.82796 3.812 1.98796 5.156 1.41196C6.5 0.811963 8.036 0.511963 9.764 0.511963C12.356 0.511963 14.456 1.14796 16.064 2.41996C17.696 3.66796 18.596 5.41996 18.764 7.67596H13.22C13.172 6.81196 12.8 6.10396 12.104 5.55196C11.432 4.97596 10.532 4.68796 9.404 4.68796C8.42 4.68796 7.628 4.93996 7.028 5.44396C6.452 5.94796 6.164 6.67996 6.164 7.63996C6.164 8.31196 6.38 8.87596 6.812 9.33196C7.268 9.76396 7.82 10.124 8.468 10.412C9.14 10.676 10.076 10.988 11.276 11.348C12.908 11.828 14.24 12.308 15.272 12.788C16.304 13.268 17.192 13.988 17.936 14.948C18.68 15.908 19.052 17.168 19.052 18.728C19.052 20.072 18.704 21.32 18.008 22.472C17.312 23.624 16.292 24.548 14.948 25.244C13.604 25.916 12.008 26.252 10.16 26.252Z" fill="#18063C"/>
<path d="M21.7655 15.956C21.7655 13.94 22.1615 12.152 22.9535 10.592C23.7695 9.03196 24.8615 7.83196 26.2295 6.99196C27.6215 6.15196 29.1695 5.73196 30.8735 5.73196C32.3615 5.73196 33.6575 6.03196 34.7615 6.63196C35.8895 7.23196 36.7895 7.98796 37.4615 8.89996V6.05596H42.5375V26H37.4615V23.084C36.8135 24.02 35.9135 24.8 34.7615 25.424C33.6335 26.024 32.3255 26.324 30.8375 26.324C29.1575 26.324 27.6215 25.892 26.2295 25.028C24.8615 24.164 23.7695 22.952 22.9535 21.392C22.1615 19.808 21.7655 17.996 21.7655 15.956ZM37.4615 16.028C37.4615 14.804 37.2215 13.76 36.7415 12.896C36.2615 12.008 35.6135 11.336 34.7975 10.88C33.9815 10.4 33.1055 10.16 32.1695 10.16C31.2335 10.16 30.3695 10.388 29.5775 10.844C28.7855 11.3 28.1375 11.972 27.6335 12.86C27.1535 13.724 26.9135 14.756 26.9135 15.956C26.9135 17.156 27.1535 18.212 27.6335 19.124C28.1375 20.012 28.7855 20.696 29.5775 21.176C30.3935 21.656 31.2575 21.896 32.1695 21.896C33.1055 21.896 33.9815 21.668 34.7975 21.212C35.6135 20.732 36.2615 20.06 36.7415 19.196C37.2215 18.308 37.4615 17.252 37.4615 16.028Z" fill="#18063C"/>
<path d="M45.8039 15.956C45.8039 13.94 46.1999 12.152 46.9919 10.592C47.8079 9.03196 48.8999 7.83196 50.2679 6.99196C51.6599 6.15196 53.2079 5.73196 54.9119 5.73196C56.3999 5.73196 57.6959 6.03196 58.7999 6.63196C59.9279 7.23196 60.8279 7.98796 61.4999 8.89996V6.05596H66.5759V26H61.4999V23.084C60.8519 24.02 59.9519 24.8 58.7999 25.424C57.6719 26.024 56.3639 26.324 54.8759 26.324C53.1959 26.324 51.6599 25.892 50.2679 25.028C48.8999 24.164 47.8079 22.952 46.9919 21.392C46.1999 19.808 45.8039 17.996 45.8039 15.956ZM61.4999 16.028C61.4999 14.804 61.2599 13.76 60.7799 12.896C60.2999 12.008 59.6519 11.336 58.8359 10.88C58.0199 10.4 57.1439 10.16 56.2079 10.16C55.2719 10.16 54.4079 10.388 53.6159 10.844C52.8239 11.3 52.1759 11.972 51.6719 12.86C51.1919 13.724 50.9519 14.756 50.9519 15.956C50.9519 17.156 51.1919 18.212 51.6719 19.124C52.1759 20.012 52.8239 20.696 53.6159 21.176C54.4319 21.656 55.2959 21.896 56.2079 21.896C57.1439 21.896 58.0199 21.668 58.8359 21.212C59.6519 20.732 60.2999 20.06 60.7799 19.196C61.2599 18.308 61.4999 17.252 61.4999 16.028Z" fill="#18063C"/>
<path d="M79.8144 26.252C78.0624 26.252 76.4784 25.952 75.0624 25.352C73.6704 24.752 72.5664 23.888 71.7504 22.76C70.9344 21.632 70.5144 20.3 70.4904 18.764H75.8904C75.9624 19.796 76.3224 20.612 76.9704 21.212C77.6424 21.812 78.5544 22.112 79.7064 22.112C80.8824 22.112 81.8064 21.836 82.4784 21.284C83.1504 20.708 83.4864 19.964 83.4864 19.052C83.4864 18.308 83.2584 17.696 82.8024 17.216C82.3464 16.736 81.7704 16.364 81.0744 16.1C80.4024 15.812 79.4664 15.5 78.2664 15.164C76.6344 14.684 75.3024 14.216 74.2704 13.76C73.2624 13.28 72.3864 12.572 71.6424 11.636C70.9224 10.676 70.5624 9.40396 70.5624 7.81996C70.5624 6.33196 70.9344 5.03596 71.6784 3.93196C72.4224 2.82796 73.4664 1.98796 74.8104 1.41196C76.1544 0.811963 77.6904 0.511963 79.4184 0.511963C82.0104 0.511963 84.1104 1.14796 85.7184 2.41996C87.3504 3.66796 88.2504 5.41996 88.4184 7.67596H82.8744C82.8264 6.81196 82.4544 6.10396 81.7584 5.55196C81.0864 4.97596 80.1864 4.68796 79.0584 4.68796C78.0744 4.68796 77.2824 4.93996 76.6824 5.44396C76.1064 5.94796 75.8184 6.67996 75.8184 7.63996C75.8184 8.31196 76.0344 8.87596 76.4664 9.33196C76.9224 9.76396 77.4744 10.124 78.1224 10.412C78.7944 10.676 79.7304 10.988 80.9304 11.348C82.5624 11.828 83.8944 12.308 84.9264 12.788C85.9584 13.268 86.8464 13.988 87.5904 14.948C88.3344 15.908 88.7064 17.168 88.7064 18.728C88.7064 20.072 88.3584 21.32 87.6624 22.472C86.9664 23.624 85.9464 24.548 84.6024 25.244C83.2584 25.916 81.6624 26.252 79.8144 26.252Z" fill="#18063C"/>
<path d="M98.5839 10.196V19.844C98.5839 20.516 98.7399 21.008 99.0519 21.32C99.3879 21.608 99.9399 21.752 100.708 21.752H103.048V26H99.8799C95.6319 26 93.5079 23.936 93.5079 19.808V10.196H91.1319V6.05596H93.5079V1.12396H98.5839V6.05596H103.048V10.196H98.5839Z" fill="#18063C"/>
<path d="M115.169 26.324C113.249 26.324 111.521 25.904 109.985 25.064C108.449 24.2 107.237 22.988 106.349 21.428C105.485 19.868 105.053 18.068 105.053 16.028C105.053 13.988 105.497 12.188 106.385 10.628C107.297 9.06796 108.533 7.86796 110.093 7.02796C111.653 6.16396 113.393 5.73196 115.313 5.73196C117.233 5.73196 118.973 6.16396 120.533 7.02796C122.093 7.86796 123.317 9.06796 124.205 10.628C125.117 12.188 125.573 13.988 125.573 16.028C125.573 18.068 125.105 19.868 124.169 21.428C123.257 22.988 122.009 24.2 120.425 25.064C118.865 25.904 117.113 26.324 115.169 26.324ZM115.169 21.932C116.081 21.932 116.933 21.716 117.725 21.284C118.541 20.828 119.189 20.156 119.669 19.268C120.149 18.38 120.389 17.3 120.389 16.028C120.389 14.132 119.885 12.68 118.877 11.672C117.893 10.64 116.681 10.124 115.241 10.124C113.801 10.124 112.589 10.64 111.605 11.672C110.645 12.68 110.165 14.132 110.165 16.028C110.165 17.924 110.633 19.388 111.569 20.42C112.529 21.428 113.729 21.932 115.169 21.932Z" fill="#18063C"/>
</svg>
